<svg width="700" height="946" viewBox="0 0 700 946" fill="none" xmlns="http://www.w3.org/2000/svg">
<g filter="url(#filter0_f)">
<path fill-rule="evenodd" clip-rule="evenodd" d="M479.671 359.118C501.242 330.023 514 294.001 514 255C514 158.35 435.65 80 339 80C242.35 80 164 158.35 164 255C164 298.062 179.553 337.491 205.349 367.977C129.998 415.877 80 500.1 80 596C80 745.117 200.883 866 350 866C499.117 866 620 745.117 620 596C620 493.878 563.304 404.997 479.671 359.118Z" fill="white" fill-opacity="0.7"/>
</g>
<g filter="url(#filter1_f)">
<ellipse cx="409.5" cy="806.5" rx="66.5" ry="14.5" fill="#3A3A3A" fill-opacity="0.1"/>
</g>
<g filter="url(#filter2_f)">
<ellipse cx="204.276" cy="780.49" rx="37.6523" ry="14.5" transform="rotate(7.82314 204.276 780.49)" fill="#3A3A3A" fill-opacity="0.1"/>
</g>
<path d="M391 408C391 408 397.023 409.564 400 412C402.811 414.3 405.5 419.5 405.5 419.5C405.5 419.5 405.48 422.49 404.5 424C403.67 425.279 401.5 426.5 401.5 426.5C401 427 400.5 426.5 400.5 426.5C400.5 426.5 401 427 400.5 427.5L397 430C396.5 430.5 396 430 396 430C396 430 396.5 430.5 396 431L394 433C393.5 433.5 392.5 433 392.5 433C392.5 433 393 433.5 392.5 434C392.5 434 391.461 435.325 390.5 435.5C390.116 435.57 389.887 435.553 389.5 435.5C387.989 435.293 386.5 432.5 386.5 432.5L385.5 426L391 408Z" fill="#F3CDBF"/>
<rect x="332" y="204" width="44" height="64" fill="#EBC5B7"/>
<path d="M314.5 136.5C317.5 133.5 326.542 132.163 334.5 132.5C346.9 133.026 354.22 137.259 363.5 145.5C374.666 155.415 374.841 172.54 385.5 183C390.183 187.595 398.015 189.128 402.5 197C408.596 207.701 397.788 217.137 402.5 228.5C406.215 237.461 414.695 238.577 418.5 247.5C421.977 255.654 421.5 270 421.5 270L405.5 319L378.5 273.5L362.5 237.5L363.5 223.5L364 210C364 210 368.5 203.5 368 195C368 187.577 367.5 176 367.5 176C367.5 176 361.7 172.613 359.5 168C357.633 164.087 356.5 156 356.5 156C356.5 156 346.269 152.201 342 150C336.487 147.158 331.5 143 331.5 143H314.5C314.5 143 311.5 139.5 314.5 136.5Z" fill="#BC6B1A"/>
<path d="M388 415L410.398 414.607C414.213 414.54 417.812 416.374 420 419.5L416 422H388V415Z" fill="#C4C4C4"/>
<path d="M344.5 479C344.5 479 385.173 440.529 415 421C434.728 408.084 462.699 394.95 483.797 385.776C501.02 378.287 520.867 384.667 531.209 400.343L589.383 488.522C600.35 505.147 597.421 527.287 582.111 540.026C561.335 557.314 531.983 580.732 508 596C470.647 619.78 407.5 648.5 407.5 648.5L344.5 479Z" fill="#131313"/>
<path d="M362.5 488.5L494 408H535.5L583.5 479.5L566 521L402.5 625L362.5 488.5Z" fill="#2F2E2E" fill-opacity="0.6"/>
<path d="M308 165C308 165 310.5 145 330 143C349.5 141 357 157 357 157L367.5 175C367.5 175 370.2 187.8 368 195.5C367.5 203.5 368 210.36 353.5 215C344.111 218.005 329.5 216 326 211L318 202.5C318 202.5 316.921 205.521 313.5 206C310.079 206.479 308.639 203.194 307 200C305.373 196.83 303 192.5 305.5 190.5C308 188.5 309 192 309 192L308 165Z" fill="#F3CDBF"/>
<path d="M176 703L187 695.5L228.5 726.5C228.5 726.5 228.01 739.009 228.5 747C229.165 757.832 232.5 774.5 232.5 774.5C232.5 774.5 233.423 778.346 232.5 780.5C231.63 782.531 228.5 784.5 228.5 784.5C226 786 217.146 778.926 211 770.5C204.617 761.749 195.5 742.5 195.5 742.5C195.5 742.5 187.76 728.349 183 720.5C178.9 713.739 174.5 705.5 176 703Z" fill="white"/>
<path d="M176 703L187 695.5L228.5 726.5C228.5 726.5 228.01 739.009 228.5 747C229.165 757.832 232.5 774.5 232.5 774.5C232.5 774.5 233.423 778.346 232.5 780.5C231.63 782.531 228.5 784.5 228.5 784.5C228.5 784.5 217.146 772.926 211 764.5C204.617 755.749 198.5 740.5 198.5 740.5C198.5 740.5 191.76 727.849 187 720C182.9 713.239 176 703 176 703Z" fill="#63A1FF"/>
<path d="M360 783H439L459.5 785.5C459.5 785.5 459.5 788 459.5 790.5C458 793 434.178 797.704 417.5 799.5C395.943 801.822 360 797 360 797V783Z" fill="white"/>
<path d="M360 774L406 760.5C406 760.5 422.582 772.881 435 776.5C443.696 779.034 455.5 778 457.5 780C459.5 782 459.5 785.5 459.5 785.5C459.5 785.5 448.312 791.07 439 793C424.469 796.011 414.84 796 400 796C383.989 796 360 793 360 793V774Z" fill="#63A1FF"/>
<path d="M288 463L350 553L369 628C369 628 361.9 642.989 354 649.5C345.074 656.856 326.5 660.5 326.5 660.5L308 673L288.5 679.5C288.5 679.5 276.368 694.15 266.5 701C256.742 707.774 239 714 239 714C239 714 237.043 718.884 235 721.5C233.043 724.005 230.5 728.5 230.5 728.5C230.5 728.5 209.553 724.635 200 716.5C192.29 709.934 184.5 694 184.5 694C184.5 694 188.295 691.498 191 690.5C193.444 689.598 197.5 689 197.5 689C197.5 689 200.854 684.427 204 683C207.044 681.619 212.5 682 212.5 682C212.5 682 219.588 672.94 226 670C229.145 668.558 234.5 667.5 234.5 667.5C234.5 667.5 257.705 649.314 273.5 639C287.352 629.955 310 617.5 310 617.5C310 617.5 312.489 611.562 315.5 609C317.696 607.132 322 605.5 322 605.5C322 605.5 317.126 599.621 316.5 594.5C315.914 589.705 318.5 582 318.5 582C318.5 582 314.072 574.091 313 568.5C311.97 563.131 313 554.5 313 554.5C313 554.5 309.863 543.548 308 536.5C306.13 529.424 304.5 521 304.5 521C304.5 521 294.664 510.517 291 504C283.132 490.006 288 463 288 463Z" fill="#3A3A3A"/>
<path d="M288 463L350 553L369 628C369 628 361.9 642.989 354 649.5C345.074 656.856 326.5 660.5 326.5 660.5L308 673L288.5 679.5C288.5 679.5 276.368 694.15 266.5 701C256.742 707.774 239 714 239 714C239 714 237.043 718.884 235 721.5C233.043 724.005 230.5 728.5 230.5 728.5C230.5 728.5 209.553 724.635 200 716.5C192.29 709.934 184.5 694 184.5 694C184.5 694 188.295 691.498 191 690.5C193.444 689.598 197.5 689 197.5 689C197.5 689 200.854 684.427 204 683C207.044 681.619 212.5 682 212.5 682C212.5 682 219.588 672.94 226 670C229.145 668.558 234.5 667.5 234.5 667.5C234.5 667.5 257.705 649.314 273.5 639C287.352 629.955 310 617.5 310 617.5C310 617.5 312.489 611.562 315.5 609C317.696 607.132 322 605.5 322 605.5C322 605.5 317.126 599.621 316.5 594.5C315.914 589.705 318.5 582 318.5 582C318.5 582 314.072 574.091 313 568.5C311.97 563.131 313 554.5 313 554.5C313 554.5 309.863 543.548 308 536.5C306.13 529.424 304.5 521 304.5 521C304.5 521 294.664 510.517 291 504C283.132 490.006 288 463 288 463Z" fill="url(#paint0_linear)"/>
<path d="M288 458H378C378 458 379.969 465.249 380 470C380.032 474.944 382.5 483.556 382.5 488.5C382.5 512 409.178 548.976 410.5 594.5C410.653 599.77 410.5 608 410.5 608C410.5 608 414.411 623.514 413.5 633.5C412.63 643.036 406.5 657 406.5 657V683.5L402 710.5L406.5 734.5L403.5 755.5C403.5 755.5 407.5 759.5 407.5 764C407.5 768.5 397.011 780.937 386 785C375.361 788.925 357 783.5 357 783.5C357 783.5 359.512 757.937 360 741.5C360.835 713.37 353.453 697.418 357 669.5C359.459 650.144 369 621 369 621C369 621 357.679 608.214 353 598.5C348.495 589.148 345.5 573 345.5 573L311.5 516C311.5 516 298.4 504.198 292.5 494.5C284.431 481.236 288 458 288 458Z" fill="#3A3A3A"/>
<path d="M288 458H378C378 458 379.969 465.249 380 470C380.032 474.944 382.5 483.556 382.5 488.5C382.5 512 409.178 548.976 410.5 594.5C410.653 599.77 410.5 608 410.5 608C410.5 608 414.411 623.514 413.5 633.5C412.63 643.036 406.5 657 406.5 657V683.5L402 710.5L406.5 734.5L403.5 755.5C403.5 755.5 407.5 759.5 407.5 764C407.5 768.5 397.011 780.937 386 785C375.361 788.925 357 783.5 357 783.5C357 783.5 359.512 757.937 360 741.5C360.835 713.37 353.453 697.418 357 669.5C359.459 650.144 369 621 369 621C369 621 357.679 608.214 353 598.5C348.495 589.148 345.5 573 345.5 573L311.5 516C311.5 516 298.4 504.198 292.5 494.5C284.431 481.236 288 458 288 458Z" fill="url(#paint1_linear)"/>
<path d="M291 408L359.5 263.5L371.5 264.5L373.5 259L400.5 317L399 327L393 406C393 406 388.286 420.108 387.5 429.5C386.518 441.233 392 456.5 390.5 459.5C389 462.5 375.5 462.5 375.5 462.5C375.5 462.5 357.794 463.341 346.5 462.5C337.66 461.841 324 459.5 324 459.5C324 459.5 313.735 465.106 306.5 466C296.619 467.221 283 462.5 281.5 461C280 459.5 289 429.5 289 429.5L291 408Z" fill="white"/>
<path d="M378.5 273L381.5 270L386 268.5C386 268.5 388.772 279.176 391 286.5C393.856 295.887 399.713 300.592 402.5 310C403.849 314.555 403 321.5 403 321.5L399 327C399 327 401.111 318.834 398.5 313.5C396.247 308.896 392.9 303.726 390 299.5C382.731 288.909 378.5 273 378.5 273Z" fill="#1F78FF"/>
<path d="M378.5 273L381.5 270L386 268.5C386 268.5 388.772 279.176 391 286.5C393.856 295.887 399.713 300.592 402.5 310C403.849 314.555 403 321.5 403 321.5L399 327C399 327 401.111 318.834 398.5 313.5C396.247 308.896 392.9 303.726 390 299.5C382.731 288.909 378.5 273 378.5 273Z" fill="url(#paint2_radial)" fill-opacity="0.5"/>
<path d="M362.5 248V237.5L389 267C391 269.5 391.5 275 391.5 275C391.5 275 389.576 269.764 386.5 269.5C383.79 269.267 378.5 273 378.5 273L362.5 248Z" fill="#63A1FF"/>
<path d="M291 275C291 275 297.22 258.085 306.5 253.5C316.503 248.557 325 243.5 325 243.5L360 278.5L371.5 266.5C371.5 266.5 378.477 274.5 381.5 280.5C385.847 289.128 384.802 296.743 387.5 304.5C394.004 323.199 402.278 332.158 406.5 351.5C410.917 371.736 408.5 404.5 408.5 404.5C408.5 404.5 395.188 408.035 386.5 409.5C360.892 413.818 320 409.5 320 409.5L291 319V275Z" fill="#1F78FF"/>
<path d="M291 275C291 275 297.22 258.085 306.5 253.5C316.503 248.557 325 243.5 325 243.5L360 278.5L371.5 266.5C371.5 266.5 378.477 274.5 381.5 280.5C385.847 289.128 384.802 296.743 387.5 304.5C394.004 323.199 402.278 332.158 406.5 351.5C410.917 371.736 408.5 404.5 408.5 404.5C408.5 404.5 395.188 408.035 386.5 409.5C360.892 413.818 320 409.5 320 409.5L291 319V275Z" fill="url(#paint3_radial)" fill-opacity="0.5"/>
<path d="M291 275C291 275 297.22 258.085 306.5 253.5C316.503 248.557 325 243.5 325 243.5L360 278.5L371.5 266.5C371.5 266.5 378.477 274.5 381.5 280.5C385.847 289.128 384.802 296.743 387.5 304.5C394.004 323.199 402.278 332.158 406.5 351.5C410.917 371.736 408.5 404.5 408.5 404.5C408.5 404.5 395.188 408.035 386.5 409.5C360.892 413.818 320 409.5 320 409.5L291 319V275Z" fill="url(#paint4_radial)" fill-opacity="0.5"/>
<path d="M325 243.5L337 239L372 266.5L363 284.5L325 243.5Z" fill="#63A1FF"/>
<path d="M315 143H329C329 143 320.067 149.078 316 154.5C307.061 166.418 309 192 309 192C309 192 307.307 191.081 306 191C302.681 190.794 306.5 199 306.5 199C306.5 199 309.4 206 313 206C315.546 206 318 202.5 318 202.5C318 202.5 324.227 209.197 328.5 212C331.866 214.208 336.5 216 336.5 216C336.5 216 336.656 221.7 338 225C340.241 230.5 343.069 231.866 344.5 237C345.658 241.155 344.481 243.809 345.5 248C348.204 259.118 363 271.5 363 271.5C363 271.5 345.557 261.66 336.5 253.5C332.498 249.894 327 245 327 245C327 245 319.768 247.599 315.5 250C302.736 257.182 291 277.5 291 277.5L276.5 308V367.5C276.5 367.5 273.69 372.426 269.5 367.5C264.979 362.185 262.5 366 262.5 366C262.5 366 261.568 357.78 266 354C268.209 352.116 268.5 347 268.5 347C268.5 347 265.5 325.035 268.5 311.5C272.015 295.642 282.36 289.908 287.5 274.5C290.858 264.435 286.048 260.511 287.5 250C288.652 241.663 293.982 234.855 295 226.5C296.079 217.641 297.631 212.99 299 204C301.471 187.766 291.964 176.816 299 162C303.161 153.238 308.5 143 315 143Z" fill="#BC6B1A"/>
<rect x="404" y="267" width="42" height="81" fill="white"/>
<rect x="409" y="294" width="37" height="54" fill="#63A1FF"/>
<rect x="409" y="294" width="37" height="54" fill="url(#paint5_radial)" fill-opacity="0.2"/>
<path d="M329 362L374.5 338C374.5 338 380.545 330.251 385.5 326.5C391.558 321.915 394.767 320.514 401.5 319C404.95 318.224 406.08 318.884 410.5 318C414.92 317.116 422 317 422 317C422 317 428.621 315.307 429 318C429.347 320.461 426.827 321.627 424.5 322.5C420.5 324 411 324 411 324L402.5 326.5C402.5 326.5 409.229 326.497 413.5 326C418.445 325.425 426 323.5 426 323.5C426 323.5 433.822 322.285 434 325.5C434.146 328.123 429 330 429 330L414 332.5L405 336L414.5 334.5L426 333C426 333 432.014 331.884 433 334.5C434.146 337.541 426 339 426 339C426 339 418.611 340.099 412 342C408.376 343.042 403 344.5 403 344.5C403 344.5 409.288 343.646 413 343.5C417.139 343.337 423.5 342 423.5 342C423.5 342 430 340.5 432 344C433.516 346.654 425 347.5 425 347.5C425 347.5 419.816 348.394 416.5 349C412.394 349.75 410.138 349.783 406 351C402.23 352.108 400.81 354.2 397 355.5C392.428 357.06 384.5 358 384.5 358L329 392V362Z" fill="#F3CDBF"/>
<path d="M329 362L374.5 338C374.5 338 380.545 330.251 385.5 326.5C391.558 321.915 394.767 320.514 401.5 319C404.95 318.224 406.08 318.884 410.5 318C414.92 317.116 422 317 422 317C422 317 428.621 315.307 429 318C429.347 320.461 426.827 321.627 424.5 322.5C420.5 324 411 324 411 324L402.5 326.5C402.5 326.5 409.229 326.497 413.5 326C418.445 325.425 426 323.5 426 323.5C426 323.5 433.822 322.285 434 325.5C434.146 328.123 429 330 429 330L414 332.5L405 336L414.5 334.5L426 333C426 333 432.014 331.884 433 334.5C434.146 337.541 426 339 426 339C426 339 418.611 340.099 412 342C408.376 343.042 403 344.5 403 344.5C403 344.5 409.288 343.646 413 343.5C417.139 343.337 423.5 342 423.5 342C423.5 342 430 340.5 432 344C433.516 346.654 425 347.5 425 347.5C425 347.5 419.816 348.394 416.5 349C412.394 349.75 410.138 349.783 406 351C402.23 352.108 400.81 354.2 397 355.5C392.428 357.06 384.5 358 384.5 358L329 392V362Z" fill="url(#paint6_radial)" fill-opacity="0.5"/>
<path d="M291 277.5C291 277.5 306.971 266.387 317.5 270C325.99 272.913 330.165 278.167 333.5 286.5C336.765 294.658 333.5 309 333.5 309C333.5 309 331.911 322.007 329.5 330C326.923 338.542 320.5 351 320.5 351V361.5H329.5C329.5 361.5 332 375.5 329.5 389C327 402.5 323 414.5 323 414.5H308.5L307 409C307 409 287.821 415.789 279.5 409C273.815 404.362 273.608 399.028 271.5 392C266.496 375.317 274.5 347.5 274.5 347.5C274.5 347.5 272.175 322.956 276 308C279.247 295.303 291 277.5 291 277.5Z" fill="#63A1FF"/>
<path d="M521.5 427.5C521.5 427.5 519.5 422.5 523.5 422C527.5 421.5 539.706 436.278 548 448C556.83 460.48 566.5 480.5 566 483.5C565.5 486.5 559.5 483.5 559.5 483.5C559.5 483.5 546.25 467.517 538 455.5C530.817 445.036 521.5 427.5 521.5 427.5Z" fill="#C4C4C4"/>
<defs>
<filter id="filter0_f" x="0" y="0" width="700" height="946" filterUnits="userSpaceOnUse" color-interpolation-filters="sRGB">
<feFlood flood-opacity="0" result="BackgroundImageFix"/>
<feBlend mode="normal" in="SourceGraphic" in2="BackgroundImageFix" result="shape"/>
<feGaussianBlur stdDeviation="40" result="effect1_foregroundBlur"/>
</filter>
<filter id="filter1_f" x="333" y="782" width="153" height="49" filterUnits="userSpaceOnUse" color-interpolation-filters="sRGB">
<feFlood flood-opacity="0" result="BackgroundImageFix"/>
<feBlend mode="normal" in="SourceGraphic" in2="BackgroundImageFix" result="shape"/>
<feGaussianBlur stdDeviation="5" result="effect1_foregroundBlur"/>
</filter>
<filter id="filter2_f" x="155" y="751" width="98.5512" height="58.9802" filterUnits="userSpaceOnUse" color-interpolation-filters="sRGB">
<feFlood flood-opacity="0" result="BackgroundImageFix"/>
<feBlend mode="normal" in="SourceGraphic" in2="BackgroundImageFix" result="shape"/>
<feGaussianBlur stdDeviation="5" result="effect1_foregroundBlur"/>
</filter>
<linearGradient id="paint0_linear" x1="392" y1="514" x2="277" y2="590" gradientUnits="userSpaceOnUse">
<stop/>
<stop offset="0.802075" stop-opacity="0"/>
</linearGradient>
<linearGradient id="paint1_linear" x1="287" y1="600" x2="497.5" y2="566.5" gradientUnits="userSpaceOnUse">
<stop stop-color="#696969"/>
<stop offset="0.663369" stop-opacity="0"/>
</linearGradient>
<radialGradient id="paint2_radial" cx="0" cy="0" r="1" gradientUnits="userSpaceOnUse" gradientTransform="translate(372 300.5) rotate(4.68549) scale(39.0103 90.631)">
<stop/>
<stop offset="0.59151" stop-color="#1F79FF" stop-opacity="0"/>
</radialGradient>
<radialGradient id="paint3_radial" cx="0" cy="0" r="1" gradientUnits="userSpaceOnUse" gradientTransform="translate(287.5 354) rotate(-3.44086) scale(158.285 222.628)">
<stop/>
<stop offset="0.59151" stop-color="#1F79FF" stop-opacity="0"/>
</radialGradient>
<radialGradient id="paint4_radial" cx="0" cy="0" r="1" gradientUnits="userSpaceOnUse" gradientTransform="translate(356.5 257) rotate(124.535) scale(56.4469 95.7308)">
<stop/>
<stop offset="0.530643" stop-color="#1F79FF" stop-opacity="0"/>
</radialGradient>
<radialGradient id="paint5_radial" cx="0" cy="0" r="1" gradientUnits="userSpaceOnUse" gradientTransform="translate(412 337) rotate(-12.7071) scale(52.2805 55.7124)">
<stop/>
<stop offset="1" stop-color="#63A1FF" stop-opacity="0"/>
</radialGradient>
<radialGradient id="paint6_radial" cx="0" cy="0" r="1" gradientUnits="userSpaceOnUse" gradientTransform="translate(313.5 371.5) rotate(-80.9982) scale(51.1297)">
<stop offset="0.070543" stop-color="#001027"/>
<stop offset="0.718348" stop-color="#F3CDBF" stop-opacity="0"/>
</radialGradient>
</defs>
</svg>
