<svg width="443" height="669" viewBox="0 0 443 669" fill="none" xmlns="http://www.w3.org/2000/svg">
<path d="M216 276C216 276 222.023 277.564 225 280C227.811 282.3 230.5 287.5 230.5 287.5C230.5 287.5 230.48 290.49 229.5 292C228.67 293.279 226.5 294.5 226.5 294.5C226 295 225.5 294.5 225.5 294.5C225.5 294.5 226 295 225.5 295.5L222 298C221.5 298.5 221 298 221 298C221 298 221.5 298.5 221 299L219 301C218.5 301.5 217.5 301 217.5 301C217.5 301 218 301.5 217.5 302C217.5 302 216.461 303.325 215.5 303.5C215.116 303.57 214.887 303.553 214.5 303.5C212.989 303.293 211.5 300.5 211.5 300.5L210.5 294L216 276Z" fill="#F3CDBF"/>
<rect x="157" y="72" width="44" height="64" fill="#EBC5B7"/>
<path d="M139.5 4.5C142.5 1.5 151.542 0.16258 159.5 0.500001C171.9 1.02576 179.22 5.25933 188.5 13.5C199.666 23.4155 199.841 40.5404 210.5 51C215.183 55.5954 223.015 57.1276 227.5 65C233.596 75.7008 222.788 85.1366 227.5 96.5C231.215 105.461 239.695 106.577 243.5 115.5C246.977 123.654 246.5 138 246.5 138L230.5 187L203.5 141.5L187.5 105.5L188.5 91.5L189 78C189 78 193.5 71.5 193 63C193 55.5775 192.5 44 192.5 44C192.5 44 186.7 40.6126 184.5 36C182.633 32.0869 181.5 24 181.5 24C181.5 24 171.269 20.2005 167 18C161.487 15.1582 156.5 11 156.5 11H139.5C139.5 11 136.5 7.5 139.5 4.5Z" fill="#BC6B1A"/>
<path d="M213 283L235.398 282.607C239.213 282.54 242.812 284.374 245 287.5V287.5L241 290H213V283Z" fill="#C4C4C4"/>
<path d="M169.5 347C169.5 347 210.173 308.529 240 289C259.728 276.084 287.699 262.95 308.797 253.776C326.02 246.287 345.867 252.667 356.209 268.343L414.383 356.522C425.35 373.147 422.421 395.287 407.111 408.026C386.335 425.314 356.983 448.732 333 464C295.647 487.78 232.5 516.5 232.5 516.5L169.5 347Z" fill="#131313"/>
<path d="M187.5 356.5L319 276H360.5L408.5 347.5L391 389L227.5 493L187.5 356.5Z" fill="#2F2E2E" fill-opacity="0.6"/>
<path d="M133 33C133 33 135.5 13 155 11C174.5 9.00005 182 25 182 25L192.5 43C192.5 43 195.2 55.8001 193 63.5C192.5 71.5 193 78.36 178.5 83C169.111 86.0046 154.5 84 151 79L143 70.5C143 70.5 141.921 73.5211 138.5 74C135.079 74.479 133.639 71.194 132 68C130.373 64.8298 128 60.5 130.5 58.5C133 56.5 134 60 134 60L133 33Z" fill="#F3CDBF"/>
<path d="M1.00001 571L12 563.5L53.5 594.5C53.5 594.5 53.0096 607.009 53.5 615C54.1649 625.832 57.5 642.5 57.5 642.5C57.5 642.5 58.423 646.346 57.5 648.5C56.6298 650.531 53.5 652.5 53.5 652.5C51 654 42.1461 646.926 36 638.5C29.6173 629.749 20.5 610.5 20.5 610.5C20.5 610.5 12.7597 596.349 8.00001 588.5C3.89983 581.739 -0.499992 573.5 1.00001 571Z" fill="#EDEDED"/>
<path d="M1.00002 571L12 563.5L53.5 594.5C53.5 594.5 53.0096 607.009 53.5 615C54.1649 625.832 57.5 642.5 57.5 642.5C57.5 642.5 58.423 646.346 57.5 648.5C56.6298 650.531 53.5 652.5 53.5 652.5C53.5 652.5 42.1461 640.926 36 632.5C29.6173 623.749 23.5 608.5 23.5 608.5C23.5 608.5 16.7597 595.849 12 588C7.89983 581.239 1.00002 571 1.00002 571Z" fill="white"/>
<path d="M185 651H264L284.5 653.5C284.5 653.5 284.5 656 284.5 658.5C283 661 259.178 665.704 242.5 667.5C220.943 669.822 185 665 185 665V651Z" fill="#EDEDED"/>
<path d="M185 642L231 628.5C231 628.5 247.582 640.881 260 644.5C268.696 647.034 280.5 646 282.5 648C284.5 650 284.5 653.5 284.5 653.5C284.5 653.5 273.312 659.07 264 661C249.469 664.011 239.84 664 225 664C208.989 664 185 661 185 661V642Z" fill="white"/>
<path d="M113 331L175 421L194 496C194 496 186.9 510.989 179 517.5C170.074 524.856 151.5 528.5 151.5 528.5L133 541L113.5 547.5C113.5 547.5 101.368 562.15 91.5 569C81.7418 575.774 64 582 64 582C64 582 62.0434 586.884 60 589.5C58.0433 592.005 55.5 596.5 55.5 596.5C55.5 596.5 34.5526 592.635 25 584.5C17.2897 577.934 9.5 562 9.5 562C9.5 562 13.2953 559.498 16 558.5C18.444 557.598 22.5 557 22.5 557C22.5 557 25.8541 552.427 29 551C32.0438 549.619 37.5 550 37.5 550C37.5 550 44.5882 540.94 51 538C54.1451 536.558 59.5 535.5 59.5 535.5C59.5 535.5 82.7053 517.314 98.5 507C112.352 497.955 135 485.5 135 485.5C135 485.5 137.489 479.562 140.5 477C142.696 475.132 147 473.5 147 473.5C147 473.5 142.126 467.621 141.5 462.5C140.914 457.705 143.5 450 143.5 450C143.5 450 139.072 442.091 138 436.5C136.97 431.131 138 422.5 138 422.5C138 422.5 134.863 411.548 133 404.5C131.13 397.424 129.5 389 129.5 389C129.5 389 119.664 378.517 116 372C108.132 358.006 113 331 113 331Z" fill="#3A3A3A"/>
<path d="M113 331L175 421L194 496C194 496 186.9 510.989 179 517.5C170.074 524.856 151.5 528.5 151.5 528.5L133 541L113.5 547.5C113.5 547.5 101.368 562.15 91.5 569C81.7418 575.774 64 582 64 582C64 582 62.0434 586.884 60 589.5C58.0433 592.005 55.5 596.5 55.5 596.5C55.5 596.5 34.5526 592.635 25 584.5C17.2897 577.934 9.5 562 9.5 562C9.5 562 13.2953 559.498 16 558.5C18.444 557.598 22.5 557 22.5 557C22.5 557 25.8541 552.427 29 551C32.0438 549.619 37.5 550 37.5 550C37.5 550 44.5882 540.94 51 538C54.1451 536.558 59.5 535.5 59.5 535.5C59.5 535.5 82.7053 517.314 98.5 507C112.352 497.955 135 485.5 135 485.5C135 485.5 137.489 479.562 140.5 477C142.696 475.132 147 473.5 147 473.5C147 473.5 142.126 467.621 141.5 462.5C140.914 457.705 143.5 450 143.5 450C143.5 450 139.072 442.091 138 436.5C136.97 431.131 138 422.5 138 422.5C138 422.5 134.863 411.548 133 404.5C131.13 397.424 129.5 389 129.5 389C129.5 389 119.664 378.517 116 372C108.132 358.006 113 331 113 331Z" fill="url(#paint0_linear)"/>
<path d="M113 326H203C203 326 204.969 333.249 205 338C205.032 342.944 207.5 351.556 207.5 356.5C207.5 380 234.178 416.976 235.5 462.5C235.653 467.77 235.5 476 235.5 476C235.5 476 239.411 491.514 238.5 501.5C237.63 511.036 231.5 525 231.5 525V551.5L227 578.5L231.5 602.5L228.5 623.5C228.5 623.5 232.5 627.5 232.5 632C232.5 636.5 222.011 648.937 211 653C200.361 656.925 182 651.5 182 651.5C182 651.5 184.512 625.937 185 609.5C185.835 581.37 178.453 565.418 182 537.5C184.459 518.144 194 489 194 489C194 489 182.679 476.214 178 466.5C173.495 457.148 170.5 441 170.5 441L136.5 384C136.5 384 123.4 372.198 117.5 362.5C109.431 349.236 113 326 113 326Z" fill="#3A3A3A"/>
<path d="M113 326H203C203 326 204.969 333.249 205 338C205.032 342.944 207.5 351.556 207.5 356.5C207.5 380 234.178 416.976 235.5 462.5C235.653 467.77 235.5 476 235.5 476C235.5 476 239.411 491.514 238.5 501.5C237.63 511.036 231.5 525 231.5 525V551.5L227 578.5L231.5 602.5L228.5 623.5C228.5 623.5 232.5 627.5 232.5 632C232.5 636.5 222.011 648.937 211 653C200.361 656.925 182 651.5 182 651.5C182 651.5 184.512 625.937 185 609.5C185.835 581.37 178.453 565.418 182 537.5C184.459 518.144 194 489 194 489C194 489 182.679 476.214 178 466.5C173.495 457.148 170.5 441 170.5 441L136.5 384C136.5 384 123.4 372.198 117.5 362.5C109.431 349.236 113 326 113 326Z" fill="url(#paint1_linear)"/>
<path d="M116 276L184.5 131.5L196.5 132.5L198.5 127L225.5 185L224 195L218 274C218 274 213.286 288.108 212.5 297.5C211.518 309.233 217 324.5 215.5 327.5C214 330.5 200.5 330.5 200.5 330.5C200.5 330.5 182.794 331.341 171.5 330.5C162.66 329.841 149 327.5 149 327.5C149 327.5 138.735 333.106 131.5 334C121.619 335.221 108 330.5 106.5 329C105 327.5 114 297.5 114 297.5L116 276Z" fill="white"/>
<path d="M203.5 141L206.5 138L211 136.5C211 136.5 213.772 147.176 216 154.5C218.856 163.887 224.713 168.592 227.5 178C228.849 182.555 228 189.5 228 189.5L224 195C224 195 226.111 186.834 223.5 181.5C221.247 176.896 217.9 171.726 215 167.5C207.731 156.909 203.5 141 203.5 141Z" fill="#1F78FF"/>
<path d="M203.5 141L206.5 138L211 136.5C211 136.5 213.772 147.176 216 154.5C218.856 163.887 224.713 168.592 227.5 178C228.849 182.555 228 189.5 228 189.5L224 195C224 195 226.111 186.834 223.5 181.5C221.247 176.896 217.9 171.726 215 167.5C207.731 156.909 203.5 141 203.5 141Z" fill="url(#paint2_radial)" fill-opacity="0.5"/>
<path d="M187.5 116V105.5L214 135C216 137.5 216.5 143 216.5 143C216.5 143 214.576 137.764 211.5 137.5C208.79 137.267 203.5 141 203.5 141L187.5 116Z" fill="#63A1FF"/>
<path d="M116 143C116 143 122.22 126.085 131.5 121.5C141.503 116.557 150 111.5 150 111.5L185 146.5L196.5 134.5C196.5 134.5 203.477 142.5 206.5 148.5C210.847 157.128 209.802 164.743 212.5 172.5C219.004 191.199 227.278 200.158 231.5 219.5C235.917 239.736 233.5 272.5 233.5 272.5C233.5 272.5 220.188 276.035 211.5 277.5C185.892 281.818 145 277.5 145 277.5L116 187V143Z" fill="#1F78FF"/>
<path d="M116 143C116 143 122.22 126.085 131.5 121.5C141.503 116.557 150 111.5 150 111.5L185 146.5L196.5 134.5C196.5 134.5 203.477 142.5 206.5 148.5C210.847 157.128 209.802 164.743 212.5 172.5C219.004 191.199 227.278 200.158 231.5 219.5C235.917 239.736 233.5 272.5 233.5 272.5C233.5 272.5 220.188 276.035 211.5 277.5C185.892 281.818 145 277.5 145 277.5L116 187V143Z" fill="url(#paint3_radial)" fill-opacity="0.5"/>
<path d="M116 143C116 143 122.22 126.085 131.5 121.5C141.503 116.557 150 111.5 150 111.5L185 146.5L196.5 134.5C196.5 134.5 203.477 142.5 206.5 148.5C210.847 157.128 209.802 164.743 212.5 172.5C219.004 191.199 227.278 200.158 231.5 219.5C235.917 239.736 233.5 272.5 233.5 272.5C233.5 272.5 220.188 276.035 211.5 277.5C185.892 281.818 145 277.5 145 277.5L116 187V143Z" fill="url(#paint4_radial)" fill-opacity="0.5"/>
<path d="M150 111.5L162 107L197 134.5L188 152.5L150 111.5Z" fill="#63A1FF"/>
<path d="M140 11H154C154 11 145.067 17.0777 141 22.5C132.061 34.4175 134 60 134 60C134 60 132.307 59.081 131 59C127.681 58.7944 131.5 67 131.5 67C131.5 67 134.4 74 138 74C140.546 74 143 70.5 143 70.5C143 70.5 149.227 77.197 153.5 80C156.866 82.2078 161.5 84 161.5 84C161.5 84 161.656 89.7001 163 93C165.241 98.4998 168.069 99.8661 169.5 105C170.658 109.155 169.481 111.809 170.5 116C173.204 127.118 188 139.5 188 139.5C188 139.5 170.557 129.66 161.5 121.5C157.498 117.894 152 113 152 113C152 113 144.768 115.599 140.5 118C127.736 125.182 116 145.5 116 145.5L101.5 176V235.5C101.5 235.5 98.69 240.426 94.5 235.5C89.9793 230.185 87.5 234 87.5 234C87.5 234 86.568 225.78 91 222C93.2086 220.116 93.5 215 93.5 215C93.5 215 90.5003 193.035 93.5 179.5C97.0145 163.642 107.36 157.908 112.5 142.5C115.858 132.434 111.048 128.511 112.5 118C113.652 109.663 118.982 102.855 120 94.5C121.079 85.6409 122.631 80.9903 124 72C126.471 55.7664 116.964 44.8161 124 30C128.161 21.2375 133.5 11 140 11Z" fill="#BC6B1A"/>
<rect x="229" y="135" width="42" height="81" fill="white"/>
<rect x="234" y="162" width="37" height="54" fill="#63A1FF"/>
<rect x="234" y="162" width="37" height="54" fill="url(#paint5_radial)" fill-opacity="0.2"/>
<path d="M154 230L199.5 206C199.5 206 205.545 198.251 210.5 194.5C216.558 189.915 219.767 188.514 226.5 187C229.95 186.224 231.08 186.884 235.5 186C239.92 185.116 247 185 247 185C247 185 253.621 183.307 254 186C254.347 188.461 251.827 189.627 249.5 190.5C245.5 192 236 192 236 192L227.5 194.5C227.5 194.5 234.229 194.497 238.5 194C243.445 193.425 251 191.5 251 191.5C251 191.5 258.822 190.285 259 193.5C259.146 196.123 254 198 254 198L239 200.5L230 204L239.5 202.5L251 201C251 201 257.014 199.884 258 202.5C259.146 205.541 251 207 251 207C251 207 243.611 208.099 237 210C233.376 211.042 228 212.5 228 212.5C228 212.5 234.288 211.646 238 211.5C242.139 211.337 248.5 210 248.5 210C248.5 210 255 208.5 257 212C258.516 214.654 250 215.5 250 215.5C250 215.5 244.816 216.394 241.5 217C237.394 217.75 235.138 217.783 231 219C227.23 220.108 225.81 222.2 222 223.5C217.428 225.06 209.5 226 209.5 226L154 260V230Z" fill="#F3CDBF"/>
<path d="M154 230L199.5 206C199.5 206 205.545 198.251 210.5 194.5C216.558 189.915 219.767 188.514 226.5 187C229.95 186.224 231.08 186.884 235.5 186C239.92 185.116 247 185 247 185C247 185 253.621 183.307 254 186C254.347 188.461 251.827 189.627 249.5 190.5C245.5 192 236 192 236 192L227.5 194.5C227.5 194.5 234.229 194.497 238.5 194C243.445 193.425 251 191.5 251 191.5C251 191.5 258.822 190.285 259 193.5C259.146 196.123 254 198 254 198L239 200.5L230 204L239.5 202.5L251 201C251 201 257.014 199.884 258 202.5C259.146 205.541 251 207 251 207C251 207 243.611 208.099 237 210C233.376 211.042 228 212.5 228 212.5C228 212.5 234.288 211.646 238 211.5C242.139 211.337 248.5 210 248.5 210C248.5 210 255 208.5 257 212C258.516 214.654 250 215.5 250 215.5C250 215.5 244.816 216.394 241.5 217C237.394 217.75 235.138 217.783 231 219C227.23 220.108 225.81 222.2 222 223.5C217.428 225.06 209.5 226 209.5 226L154 260V230Z" fill="url(#paint6_radial)" fill-opacity="0.5"/>
<path d="M116 145.5C116 145.5 131.971 134.387 142.5 138C150.99 140.913 155.165 146.167 158.5 154.5C161.765 162.658 158.5 177 158.5 177C158.5 177 156.911 190.007 154.5 198C151.923 206.542 145.5 219 145.5 219V229.5H154.5C154.5 229.5 157 243.5 154.5 257C152 270.5 148 282.5 148 282.5H133.5L132 277C132 277 112.821 283.789 104.5 277C98.8149 272.362 98.608 267.028 96.5 260C91.4959 243.317 99.5 215.5 99.5 215.5C99.5 215.5 97.1753 190.956 101 176C104.247 163.303 116 145.5 116 145.5Z" fill="#63A1FF"/>
<path d="M346.5 295.5C346.5 295.5 344.5 290.5 348.5 290C352.5 289.5 364.706 304.278 373 316C381.83 328.48 391.5 348.5 391 351.5C390.5 354.5 384.5 351.5 384.5 351.5C384.5 351.5 371.25 335.517 363 323.5C355.817 313.036 346.5 295.5 346.5 295.5Z" fill="#C4C4C4"/>
<defs>
<linearGradient id="paint0_linear" x1="217" y1="382" x2="102" y2="458" gradientUnits="userSpaceOnUse">
<stop/>
<stop offset="0.802075" stop-opacity="0"/>
</linearGradient>
<linearGradient id="paint1_linear" x1="112" y1="468" x2="322.5" y2="434.5" gradientUnits="userSpaceOnUse">
<stop stop-color="#696969"/>
<stop offset="0.663369" stop-opacity="0"/>
</linearGradient>
<radialGradient id="paint2_radial" cx="0" cy="0" r="1" gradientUnits="userSpaceOnUse" gradientTransform="translate(197 168.5) rotate(4.68549) scale(39.0103 90.631)">
<stop/>
<stop offset="0.59151" stop-color="#1F79FF" stop-opacity="0"/>
</radialGradient>
<radialGradient id="paint3_radial" cx="0" cy="0" r="1" gradientUnits="userSpaceOnUse" gradientTransform="translate(112.5 222) rotate(-3.44086) scale(158.285 222.628)">
<stop/>
<stop offset="0.59151" stop-color="#1F79FF" stop-opacity="0"/>
</radialGradient>
<radialGradient id="paint4_radial" cx="0" cy="0" r="1" gradientUnits="userSpaceOnUse" gradientTransform="translate(181.5 125) rotate(124.535) scale(56.4469 95.7308)">
<stop/>
<stop offset="0.530643" stop-color="#1F79FF" stop-opacity="0"/>
</radialGradient>
<radialGradient id="paint5_radial" cx="0" cy="0" r="1" gradientUnits="userSpaceOnUse" gradientTransform="translate(237 205) rotate(-12.7071) scale(52.2805 55.7124)">
<stop/>
<stop offset="1" stop-color="#63A1FF" stop-opacity="0"/>
</radialGradient>
<radialGradient id="paint6_radial" cx="0" cy="0" r="1" gradientUnits="userSpaceOnUse" gradientTransform="translate(138.5 239.5) rotate(-80.9982) scale(51.1297)">
<stop offset="0.070543" stop-color="#001027"/>
<stop offset="0.718348" stop-color="#F3CDBF" stop-opacity="0"/>
</radialGradient>
</defs>
</svg>
