<svg width="600" height="378" viewBox="0 0 600 378" fill="none" xmlns="http://www.w3.org/2000/svg">
<path d="M269.859 247.968L390.735 257.39H458.096L481.298 258.477L546.039 266.448V310.656L436.016 316.454H420.673L338.717 333.847L300.546 338.557L260.503 316.454V294.712L263.871 262.825L269.485 255.578L269.859 247.968Z" fill="#121212"/>
<path d="M526.654 307.419L589.287 312.021L586.261 322.251L525.858 318.26L526.654 307.419Z" fill="#222222"/>
<path d="M27.8711 302.322H44.5394L68.0925 307.395L66.2808 314.279L27.8711 311.381V302.322Z" fill="#6F6F6F"/>
<path d="M27.8711 302.322H44.5394L68.0925 307.395L66.2808 314.279L27.8711 311.381V302.322Z" fill="url(#paint0_linear)"/>
<path d="M79.6541 268.26H143.766L153.699 359.01C153.699 359.01 150.687 363.869 147.378 365.331C145.097 366.339 142.863 367.137 140.606 367.589C138.348 368.04 84.0362 369.357 79.3256 366.459C74.615 363.56 71.1027 358.679 67.4638 351.787C58.5593 334.921 64.7548 303.025 64.7548 303.025L79.6541 268.26Z" fill="#0D0D0D"/>
<ellipse cx="144.218" cy="316.119" rx="21.2202" ry="47.8583" fill="#0D0D0D"/>
<path d="M308.206 273.333H359.66L367.632 346.167C367.632 346.167 365.215 350.066 362.559 351.24C360.729 352.049 358.936 352.689 357.124 353.051C355.312 353.414 308.206 353.051 308.206 353.051C308.206 353.051 301.343 345.901 298.422 340.369C291.276 326.833 296.248 301.235 296.248 301.235L308.206 273.333Z" fill="#0D0D0D"/>
<ellipse cx="360.023" cy="311.743" rx="17.0307" ry="38.4097" fill="#0D0D0D"/>
<path d="M362.897 330.573L479.221 331.085L479.468 341.637L362.796 340.439C362.796 340.439 359.906 337.882 359.839 335.702C359.768 333.371 362.897 330.573 362.897 330.573Z" fill="#222222"/>
<path d="M465.468 282.755H516.923L524.894 355.588C524.894 355.588 522.477 359.487 519.821 360.661C517.991 361.47 516.198 362.11 514.386 362.473C512.574 362.835 469.582 362.835 465.468 360.661C461.354 358.487 458.605 355.322 455.684 349.79C448.538 336.255 453.51 310.656 453.51 310.656L465.468 282.755Z" fill="#0D0D0D"/>
<ellipse cx="517.285" cy="321.164" rx="17.0307" ry="38.4097" fill="url(#paint1_radial)"/>
<ellipse cx="517.413" cy="321.164" rx="12.6824" ry="28.9884" fill="url(#paint2_linear)"/>
<path d="M125.134 322.614L241.495 331.216L239.894 352.87L123.533 344.267C123.533 344.267 119.687 337.921 119.909 333.484C120.145 328.78 125.134 322.614 125.134 322.614Z" fill="#222222"/>
<rect x="224.495" y="305.265" width="49.7801" height="10.4285" transform="rotate(134.361 224.495 305.265)" fill="#222222"/>
<rect width="49.7801" height="10.4285" transform="matrix(0.699176 0.71495 0.71495 -0.699176 159.044 305.265)" fill="#222222"/>
<path d="M236.916 277.682H301.028L310.961 368.432C310.961 368.432 307.949 373.29 304.64 374.753C302.36 375.761 300.125 376.559 297.868 377.01C295.61 377.462 239.124 376.927 235.863 374.753C232.602 372.578 228.365 368.1 224.726 361.208C215.821 344.342 222.017 312.447 222.017 312.447L236.916 277.682Z" fill="#0D0D0D"/>
<ellipse cx="301.48" cy="325.54" rx="21.2202" ry="47.8583" fill="url(#paint3_radial)"/>
<ellipse cx="301.64" cy="325.54" rx="15.8023" ry="36.1195" fill="url(#paint4_linear)"/>
<path d="M277.172 253.041H332.25L539.517 260.651L592.421 263.187L581.55 267.898L533.719 276.594C533.719 276.594 524.101 271.733 517.413 271.159C510.413 270.559 499.658 274.058 499.658 274.058L332.25 283.842C332.25 283.842 317.77 277.878 307.972 276.232C296.11 274.239 277.172 276.232 277.172 276.232V253.041Z" fill="#222222"/>
<mask id="mask0" style="mask-type:alpha" maskUnits="userSpaceOnUse" x="27" y="247" width="566" height="131">
<path d="M269.859 247.968L390.735 257.39H458.096L481.298 258.477L546.039 266.448V310.656L436.016 316.454H420.673L338.717 333.847L300.546 338.557L260.503 316.454V294.712L263.871 262.825L269.485 255.578L269.859 247.968Z" fill="#222222"/>
<path d="M526.654 307.419L589.287 312.021L586.261 322.251L525.858 318.26L526.654 307.419Z" fill="#222222"/>
<path d="M27.8711 302.322H44.5394L68.0925 307.395L66.2808 314.279L27.8711 311.381V302.322Z" fill="#222222"/>
<path d="M79.6541 268.26H143.766L153.699 359.01C153.699 359.01 150.687 363.869 147.378 365.331C145.097 366.339 142.863 367.137 140.606 367.589C138.348 368.04 84.0362 369.357 79.3256 366.459C74.6149 363.56 71.1027 358.679 67.4638 351.787C58.5592 334.921 64.7548 303.025 64.7548 303.025L79.6541 268.26Z" fill="#222222"/>
<path d="M165.438 316.119C165.438 342.55 155.937 363.977 144.218 363.977C132.498 363.977 122.997 342.55 122.997 316.119C122.997 289.687 132.498 268.26 144.218 268.26C155.937 268.26 165.438 289.687 165.438 316.119Z" fill="#222222"/>
<path d="M308.206 273.333H359.66L367.632 346.167C367.632 346.167 365.215 350.066 362.559 351.24C360.729 352.049 358.936 352.689 357.124 353.051C355.312 353.414 308.206 353.051 308.206 353.051C308.206 353.051 301.343 345.901 298.422 340.369C291.276 326.833 296.248 301.235 296.248 301.235L308.206 273.333Z" fill="#222222"/>
<path d="M377.053 311.743C377.053 332.956 369.428 350.153 360.023 350.153C350.617 350.153 342.992 332.956 342.992 311.743C342.992 290.53 350.617 273.333 360.023 273.333C369.428 273.333 377.053 290.53 377.053 311.743Z" fill="#222222"/>
<path d="M362.897 330.573L479.221 331.085L479.468 341.637L362.796 340.439C362.796 340.439 359.906 337.882 359.839 335.702C359.768 333.371 362.897 330.573 362.897 330.573Z" fill="#222222"/>
<path d="M465.468 282.754H516.922L524.894 355.588C524.894 355.588 522.477 359.487 519.821 360.661C517.991 361.47 516.198 362.11 514.386 362.473C512.574 362.835 469.582 362.835 465.468 360.661C461.354 358.487 458.605 355.322 455.684 349.79C448.538 336.254 453.51 310.656 453.51 310.656L465.468 282.754Z" fill="#222222"/>
<path d="M534.316 321.164C534.316 342.377 526.691 359.574 517.285 359.574C507.879 359.574 500.254 342.377 500.254 321.164C500.254 299.951 507.879 282.754 517.285 282.754C526.691 282.754 534.316 299.951 534.316 321.164Z" fill="#222222"/>
<path d="M530.096 321.164C530.096 337.174 524.417 350.153 517.413 350.153C510.409 350.153 504.731 337.174 504.731 321.164C504.731 305.154 510.409 292.176 517.413 292.176C524.417 292.176 530.096 305.154 530.096 321.164Z" fill="#222222"/>
<path d="M125.134 322.614L241.495 331.216L239.894 352.87L123.533 344.267C123.533 344.267 119.687 337.921 119.909 333.484C120.145 328.78 125.134 322.614 125.134 322.614Z" fill="#222222"/>
<path d="M224.495 305.265L189.69 340.855L182.234 333.564L217.04 297.973L224.495 305.265Z" fill="#222222"/>
<path d="M159.044 305.265L193.849 340.855L201.305 333.564L166.5 297.973L159.044 305.265Z" fill="#222222"/>
<path d="M236.916 277.682H301.028L310.961 368.432C310.961 368.432 307.949 373.29 304.64 374.753C302.36 375.76 300.125 376.559 297.868 377.01C295.61 377.462 239.124 376.927 235.863 374.753C232.602 372.578 228.365 368.1 224.726 361.208C215.821 344.342 222.017 312.446 222.017 312.446L236.916 277.682Z" fill="#222222"/>
<path d="M322.7 325.54C322.7 351.971 313.199 373.398 301.48 373.398C289.76 373.398 280.26 351.971 280.26 325.54C280.26 299.108 289.76 277.682 301.48 277.682C313.199 277.682 322.7 299.108 322.7 325.54Z" fill="#222222"/>
<path d="M317.442 325.54C317.442 345.488 310.367 361.659 301.64 361.659C292.912 361.659 285.837 345.488 285.837 325.54C285.837 305.592 292.912 289.42 301.64 289.42C310.367 289.42 317.442 305.592 317.442 325.54Z" fill="#222222"/>
<path d="M277.172 253.041H332.25L539.517 260.651L592.421 263.187L581.55 267.898L533.719 276.594C533.719 276.594 524.101 271.733 517.413 271.159C510.413 270.559 499.658 274.058 499.658 274.058L332.25 283.842C332.25 283.842 317.77 277.878 307.972 276.232C296.11 274.239 277.172 276.232 277.172 276.232V253.041Z" fill="#222222"/>
</mask>
<g mask="url(#mask0)">
<rect x="-17.0609" y="229.126" width="643.543" height="147.841" fill="url(#paint5_linear)"/>
</g>
<path d="M370.659 0.842026L588.435 53.0212C588.435 53.0212 596.044 54.833 597.856 56.2824C599.668 57.7318 599.668 62.0801 599.668 64.2542C599.668 66.4283 592.421 263.55 592.421 263.55L361.238 266.086L370.659 0.842026Z" fill="#C4C4C4"/>
<path d="M165.566 0.842026H370.659L361.238 266.086L152.159 258.114L165.566 0.842026Z" fill="#A9A9A9"/>
<path d="M175.35 14.6115H359.426L349.643 253.041L165.929 244.345L175.35 14.6115Z" fill="#7C7C7C"/>
<path d="M380.443 18.235L591.334 64.6165L585.174 252.679L371.746 250.505L380.443 18.235Z" fill="#A8A8A8"/>
<circle cx="585.536" cy="261.376" r="1.08707" fill="#9A9A9A"/>
<circle cx="583.569" cy="60.8379" r="1.08707" transform="rotate(12.3443 583.569 60.8379)" fill="#9A9A9A"/>
<circle cx="558.722" cy="261.376" r="1.08707" fill="#9A9A9A"/>
<circle cx="558.204" cy="55.0402" r="1.08707" transform="rotate(12.3443 558.204 55.0402)" fill="#9A9A9A"/>
<circle cx="534.082" cy="261.376" r="1.08707" fill="#9A9A9A"/>
<circle cx="533.564" cy="49.2425" r="1.08707" transform="rotate(12.3443 533.564 49.2425)" fill="#9A9A9A"/>
<circle cx="506.543" cy="261.376" r="1.08707" fill="#9A9A9A"/>
<circle cx="506.75" cy="43.4449" r="1.08707" transform="rotate(12.3443 506.75 43.4449)" fill="#9A9A9A"/>
<circle cx="477.554" cy="261.376" r="1.08707" fill="#9A9A9A"/>
<circle cx="477.761" cy="36.9225" r="1.08707" transform="rotate(12.3443 477.761 36.9225)" fill="#9A9A9A"/>
<circle cx="445.667" cy="261.376" r="1.08707" fill="#9A9A9A"/>
<circle cx="446.599" cy="29.6754" r="1.08707" transform="rotate(12.3443 446.599 29.6754)" fill="#9A9A9A"/>
<circle cx="411.605" cy="261.376" r="1.08707" fill="#9A9A9A"/>
<circle cx="413.924" cy="22.2006" r="1.08707" transform="rotate(12.3443 413.924 22.2006)" fill="#9A9A9A"/>
<circle cx="382.824" cy="15.1811" r="1.08707" transform="rotate(12.3443 382.824 15.1811)" fill="#9A9A9A"/>
<circle cx="394.937" cy="254.128" r="1.08707" fill="#9A9A9A"/>
<circle cx="373.921" cy="254.128" r="1.08707" fill="#9A9A9A"/>
<circle cx="369.572" cy="247.606" r="1.08707" fill="#9A9A9A"/>
<circle cx="371.022" cy="212.82" r="1.08707" fill="#9A9A9A"/>
<circle cx="372.471" cy="182.382" r="1.08707" fill="#9A9A9A"/>
<circle cx="373.196" cy="153.394" r="1.08707" fill="#9A9A9A"/>
<circle cx="374.645" cy="124.405" r="1.08707" fill="#9A9A9A"/>
<circle cx="376.095" cy="88.1696" r="1.08707" fill="#9A9A9A"/>
<circle cx="377.544" cy="55.5576" r="1.08707" fill="#9A9A9A"/>
<circle cx="378.269" cy="20.7716" r="1.08707" fill="#9A9A9A"/>
<circle cx="399.19" cy="10.8328" r="1.08707" transform="rotate(12.3443 399.19 10.8328)" fill="#9A9A9A"/>
<circle cx="379.201" cy="5.75983" r="1.08707" transform="rotate(12.3443 379.201 5.75983)" fill="#9A9A9A"/>
<circle cx="368.848" cy="262.1" r="1.08707" fill="#9A9A9A"/>
<circle cx="363.775" cy="255.578" r="1.08707" fill="#9A9A9A"/>
<circle cx="364.499" cy="227.314" r="1.08707" fill="#9A9A9A"/>
<circle cx="365.949" cy="195.427" r="1.08707" fill="#9A9A9A"/>
<circle cx="366.673" cy="167.888" r="1.08707" fill="#9A9A9A"/>
<circle cx="368.123" cy="136.725" r="1.08707" fill="#9A9A9A"/>
<circle cx="369.572" cy="105.563" r="1.08707" fill="#9A9A9A"/>
<circle cx="370.297" cy="70.0519" r="1.08707" fill="#9A9A9A"/>
<circle cx="371.746" cy="38.8893" r="1.08707" fill="#9A9A9A"/>
<circle cx="372.471" cy="12.7997" r="1.08707" fill="#9A9A9A"/>
<circle cx="429.723" cy="254.128" r="1.08707" fill="#9A9A9A"/>
<circle cx="433.172" cy="18.9944" r="1.08707" transform="rotate(12.3443 433.172 18.9944)" fill="#9A9A9A"/>
<circle cx="462.335" cy="254.128" r="1.08707" fill="#9A9A9A"/>
<circle cx="465.03" cy="26.7765" r="1.08707" transform="rotate(12.3443 465.03 26.7765)" fill="#9A9A9A"/>
<circle cx="489.874" cy="254.128" r="1.08707" fill="#9A9A9A"/>
<circle cx="491.933" cy="33.2989" r="1.08707" transform="rotate(12.3443 491.933 33.2989)" fill="#9A9A9A"/>
<circle cx="521.037" cy="254.128" r="1.08707" fill="#9A9A9A"/>
<circle cx="522.375" cy="39.8212" r="1.08707" transform="rotate(12.3443 522.375 39.8212)" fill="#9A9A9A"/>
<circle cx="544.228" cy="254.128" r="1.08707" fill="#9A9A9A"/>
<circle cx="545.029" cy="44.8942" r="1.08707" transform="rotate(12.3443 545.029 44.8942)" fill="#9A9A9A"/>
<circle cx="573.216" cy="254.128" r="1.08707" fill="#9A9A9A"/>
<circle cx="586.623" cy="250.867" r="0.724711" fill="#9A9A9A"/>
<circle cx="591.696" cy="243.62" r="0.724711" fill="#9A9A9A"/>
<circle cx="587.348" cy="229.851" r="0.724711" fill="#9A9A9A"/>
<circle cx="592.421" cy="216.806" r="0.724711" fill="#9A9A9A"/>
<circle cx="588.073" cy="203.761" r="0.724711" fill="#9A9A9A"/>
<circle cx="593.146" cy="192.89" r="0.724711" fill="#9A9A9A"/>
<circle cx="588.797" cy="180.57" r="0.724711" fill="#9A9A9A"/>
<circle cx="594.595" cy="167.525" r="0.724711" fill="#9A9A9A"/>
<circle cx="589.522" cy="153.756" r="0.724711" fill="#9A9A9A"/>
<circle cx="595.32" cy="139.986" r="0.724711" fill="#9A9A9A"/>
<circle cx="590.971" cy="124.768" r="0.724711" fill="#9A9A9A"/>
<circle cx="596.044" cy="108.824" r="0.724711" fill="#9A9A9A"/>
<circle cx="591.696" cy="92.8803" r="0.724711" fill="#9A9A9A"/>
<circle cx="597.494" cy="76.9366" r="0.724711" fill="#9A9A9A"/>
<circle cx="592.421" cy="66.7906" r="0.724711" fill="#9A9A9A"/>
<circle cx="598.219" cy="63.1671" r="0.724711" fill="#9A9A9A"/>
<circle cx="573.423" cy="52.1414" r="1.08707" transform="rotate(12.3443 573.423 52.1414)" fill="#9A9A9A"/>
<circle cx="592.99" cy="57.2144" r="1.08707" transform="rotate(12.3443 592.99 57.2144)" fill="#9A9A9A"/>
<path d="M365.586 256.665H589.522V258.839H365.586V256.665Z" fill="#DCDCDC"/>
<path d="M375.37 8.08913L594.957 59.5436V61.7177L375.37 10.2633V8.08913Z" fill="#DCDCDC"/>
<path d="M365.586 258.902L375.37 8.18184L377.182 8.50898L367.398 258.902L365.586 258.902Z" fill="#DCDCDC"/>
<path d="M588.073 258.839L594.233 61.3553L593.145 59.1812C593.145 59.1812 595.154 59.4222 595.682 59.9059C596.407 60.2682 596.407 60.993 596.407 60.993L589.522 258.839L588.073 258.839Z" fill="#DCDCDC"/>
<path d="M285.143 255.216L356.165 257.39L355.44 261.013L285.143 258.839V255.216Z" fill="#C4C4C4"/>
<path d="M169.19 5.91507H364.862L364.137 9.53862H169.19V5.91507Z" fill="#C4C4C4"/>
<path d="M367.036 5.91507L356.89 261.013L353.991 261.013L364.137 5.91507L367.036 5.91507Z" fill="#C4C4C4"/>
<path d="M172.089 5.91507L168.103 77.6614L165.204 77.6614L169.19 5.91507L172.089 5.91507Z" fill="#C4C4C4"/>
<circle cx="295.652" cy="261.376" r="1.08707" fill="#919191"/>
<circle cx="319.567" cy="262.1" r="1.08707" fill="#919191"/>
<circle cx="347.106" cy="254.853" r="1.08707" fill="#919191"/>
<circle cx="327.539" cy="254.128" r="1.08707" fill="#919191"/>
<circle cx="359.426" cy="258.477" r="1.08707" fill="#919191"/>
<circle cx="352.179" cy="250.505" r="1.08707" fill="#919191"/>
<circle cx="360.151" cy="233.837" r="1.08707" fill="#919191"/>
<circle cx="353.629" cy="214.994" r="1.08707" fill="#919191"/>
<circle cx="355.078" cy="182.382" r="1.08707" fill="#919191"/>
<circle cx="356.527" cy="149.77" r="1.08707" fill="#919191"/>
<circle cx="357.977" cy="117.158" r="1.08707" fill="#919191"/>
<circle cx="358.702" cy="84.5462" r="1.08707" fill="#919191"/>
<circle cx="360.151" cy="51.9342" r="1.08707" fill="#919191"/>
<circle cx="361.6" cy="18.5975" r="1.08707" fill="#919191"/>
<circle cx="166.653" cy="19.3222" r="1.08707" fill="#919191"/>
<circle cx="165.204" cy="46.1365" r="1.08707" fill="#919191"/>
<circle cx="163.754" cy="75.1249" r="1.08707" fill="#919191"/>
<circle cx="357.252" cy="12.0751" r="1.08707" fill="#919191"/>
<circle cx="328.988" cy="12.0751" r="1.08707" fill="#919191"/>
<circle cx="300.725" cy="12.0751" r="1.08707" fill="#919191"/>
<circle cx="272.461" cy="12.0751" r="1.08707" fill="#919191"/>
<circle cx="244.197" cy="12.0751" r="1.08707" fill="#919191"/>
<circle cx="210.861" cy="12.0751" r="1.08707" fill="#919191"/>
<circle cx="177.524" cy="12.0751" r="1.08707" fill="#919191"/>
<circle cx="360.876" cy="204.848" r="1.08707" fill="#919191"/>
<circle cx="362.325" cy="172.236" r="1.08707" fill="#919191"/>
<circle cx="363.775" cy="139.624" r="1.08707" fill="#919191"/>
<circle cx="365.224" cy="107.012" r="1.08707" fill="#919191"/>
<circle cx="365.949" cy="74.4002" r="1.08707" fill="#919191"/>
<circle cx="367.398" cy="41.7882" r="1.08707" fill="#919191"/>
<circle cx="368.848" cy="8.45151" r="1.08707" fill="#919191"/>
<circle cx="173.176" cy="15.6986" r="1.08707" fill="#919191"/>
<circle cx="172.451" cy="42.5129" r="1.08707" fill="#919191"/>
<circle cx="171.001" cy="71.5013" r="1.08707" fill="#919191"/>
<circle cx="362.325" cy="3.37851" r="1.08707" fill="#919191"/>
<circle cx="334.061" cy="3.37851" r="1.08707" fill="#919191"/>
<circle cx="305.798" cy="3.37851" r="1.08707" fill="#919191"/>
<circle cx="277.534" cy="3.37851" r="1.08707" fill="#919191"/>
<circle cx="249.27" cy="3.37851" r="1.08707" fill="#919191"/>
<circle cx="215.934" cy="3.37851" r="1.08707" fill="#919191"/>
<circle cx="188.395" cy="3.37851" r="1.08707" fill="#919191"/>
<circle cx="172.451" cy="3.37851" r="1.08707" fill="#919191"/>
<circle cx="353.629" cy="263.55" r="1.08707" fill="#919191"/>
<mask id="mask1" style="mask-type:alpha" maskUnits="userSpaceOnUse" x="152" y="0" width="219" height="267">
<path d="M165.566 0.842026H370.659L361.238 266.086L152.159 258.114L165.566 0.842026Z" fill="#7C7C7C"/>
<path d="M175.35 14.6115H359.426L349.643 253.041L165.929 244.345L175.35 14.6115Z" fill="#7C7C7C"/>
</mask>
<g mask="url(#mask1)">
<path d="M165.566 0.842026H370.659L361.238 266.086L152.159 258.114L165.566 0.842026Z" fill="url(#paint6_radial)"/>
<path d="M175.35 14.6115H359.426L349.643 253.041L165.929 244.345L175.35 14.6115Z" fill="url(#paint7_radial)"/>
</g>
<path d="M29.5744 127.212C28.1085 132.62 30.2899 137.918 34.4469 139.045C38.6038 140.172 43.1621 136.701 44.6281 131.292C46.094 125.884 43.9126 120.586 39.7556 119.46C35.5987 118.333 31.0404 121.804 29.5744 127.212Z" fill="#282828"/>
<path d="M23.9774 128.698C22.5114 134.107 24.6929 139.404 28.8498 140.531C33.0068 141.658 37.565 138.187 39.031 132.779C40.497 127.37 38.3155 122.073 34.1586 120.946C30.0016 119.819 25.4433 123.29 23.9774 128.698Z" fill="#282828"/>
<path d="M15.6662 157.231C14.8285 160.321 16.0751 163.349 18.4505 163.992C20.8259 164.636 23.4306 162.653 24.2683 159.562C25.106 156.472 23.8594 153.445 21.484 152.801C19.1086 152.157 16.5039 154.14 15.6662 157.231Z" fill="#282828"/>
<path d="M29.2342 164.663C28.3965 167.753 29.6431 170.781 32.0185 171.424C34.3939 172.068 36.9986 170.085 37.8363 166.995C38.674 163.904 37.4275 160.877 35.0521 160.233C32.6767 159.589 30.0719 161.572 29.2342 164.663Z" fill="#282828"/>
<path d="M45.0228 128.771L39.218 119.314C39.218 119.314 36.0483 118.893 34.0001 119.401C32.1514 119.86 29.3835 121.529 29.3835 121.529L24.167 127.999L15.6662 157.231L16.4895 162.71C16.4895 162.71 21.7276 167.53 24.5865 169.034C27.3099 170.468 32.0185 171.424 32.0185 171.424L35.8131 170.2L37.426 170.638L39.8907 161.544L38.2778 161.107L40.1738 154.113L56.3027 158.484L57.3312 162.142L56.042 165.922L63.7205 168.379L67.0215 150.878L61.1076 149.275L58.9571 148.692L41.2153 143.883L44.6281 131.292L45.0228 128.771Z" fill="#282828"/>
<path d="M44.8177 130.593L37.4493 130.097L30.2134 158.921L39.8907 161.544L44.8177 130.593Z" fill="#282828"/>
<path d="M56.4027 183.665C55.7221 186.176 56.7349 188.636 58.665 189.159C60.595 189.682 62.7113 188.071 63.3919 185.56C64.0407 183.167 63.1509 180.82 61.3949 180.152C61.3086 180.119 61.2202 180.091 61.1297 180.066C59.2909 179.568 57.283 181.007 56.5087 183.316C56.4703 183.43 56.4349 183.547 56.4027 183.665Z" fill="#282828"/>
<path d="M37.426 170.638L39.8907 161.544L56.042 165.922L64.6217 168.248L61.3949 180.152C61.3086 180.119 61.2202 180.091 61.1297 180.066C59.2909 179.568 57.283 181.007 56.5087 183.316L56.4975 183.316C56.9715 181.567 55.7538 179.093 54.4249 177.122C52.4796 174.718 48.7162 173.698 46.8345 173.188L37.426 170.638Z" fill="#282828"/>
<path d="M241.661 297.974L255.068 228.401L321.379 225.503V244.345C321.379 244.345 299.638 246.882 295.652 248.693C290.419 250.785 286.97 251.609 282.97 255.578C277.429 261.075 273.186 282.755 273.186 282.755L266.664 317.903L241.661 315.729V297.974Z" fill="#9C020F"/>
<path d="M252.169 101.939L310.146 102.664L308.697 167.163L247.821 172.599L252.169 101.939Z" fill="black"/>
<path d="M315.219 96.5041L314.494 170.062L246.734 183.107L248.183 178.759L308.334 167.526V114.622C308.334 114.622 308.334 107.012 307.247 105.201C306.16 103.389 303.261 103.389 300.725 103.026C298.188 102.664 291.677 102.303 285.868 102.302C276.643 102.299 266.301 101.939 262.315 104.114C258.329 106.288 255.068 117.158 255.068 117.158L260.141 95.417H290.941L315.219 96.5041Z" fill="url(#paint8_linear)"/>
<path d="M320.654 96.8664H313.407L313.77 169.7L246.372 182.382L241.661 189.992V298.336L255.43 300.51C255.43 300.51 252.043 265.396 263.04 250.505C268.639 242.924 272.908 239.119 281.158 234.561C295.032 226.897 321.379 229.126 321.379 229.126L322.104 169.7C322.104 169.7 322.421 142.286 321.379 124.768C320.78 114.703 320.654 96.8664 320.654 96.8664Z" fill="#AA000F"/>
<path d="M299.638 137.813C299.638 143.416 295.095 147.959 289.492 147.959C283.888 147.959 279.346 143.416 279.346 137.813C279.346 132.209 283.888 127.667 289.492 127.667C295.095 127.667 299.638 132.209 299.638 137.813Z" fill="#AA000F"/>
<path d="M306.16 140.711C306.16 146.315 301.618 150.857 296.014 150.857C290.411 150.857 285.868 146.315 285.868 140.711C285.868 135.108 290.411 130.565 296.014 130.565C301.618 130.565 306.16 135.108 306.16 140.711Z" fill="#AA000F"/>
<path d="M306.885 170.425C306.885 173.627 304.289 176.222 301.087 176.222C297.885 176.222 295.289 173.627 295.289 170.425C295.289 167.223 297.885 164.627 301.087 164.627C304.289 164.627 306.885 167.223 306.885 170.425Z" fill="#AA000F"/>
<path d="M287.318 174.048C287.318 177.25 284.722 179.846 281.52 179.846C278.318 179.846 275.722 177.25 275.722 174.048C275.722 170.846 278.318 168.25 281.52 168.25C284.722 168.25 287.318 170.846 287.318 174.048Z" fill="#AA000F"/>
<path d="M279.708 135.276L290.217 127.667C290.217 127.667 294.34 128.09 296.739 129.116C298.904 130.042 301.812 132.377 301.812 132.377L306.16 139.987L306.885 170.425L303.986 175.498C303.986 175.498 295.768 178.779 291.666 179.483C287.758 180.154 281.52 179.846 281.52 179.846L277.172 177.672H274.998V168.25H277.172V161.003H255.43V150.857H279.346V137.813L279.708 135.276Z" fill="#AA000F"/>
<path d="M279.346 137.088L288.767 138.537L288.042 168.25H274.998L279.346 137.088Z" fill="#AA000F"/>
<path d="M241.661 168.25H274.998V177.672H262.315C259.779 177.672 254.706 177.672 251.444 179.483C249.105 181.038 246.734 183.107 246.734 184.919L241.661 183.832V168.25Z" fill="#AA000F"/>
<path d="M246.734 185.281C246.734 187.883 244.625 189.992 242.023 189.992C239.422 189.992 237.313 187.883 237.313 185.281C237.313 182.68 239.422 180.57 242.023 180.57C244.625 180.57 246.734 182.68 246.734 185.281Z" fill="#AA000F"/>
<path d="M254.706 92.1558L266.663 89.2569H285.144L320.654 89.9816V97.2288C320.654 97.2288 306.646 97.0045 298.551 96.504C286.969 95.7881 271.374 96.1417 268.838 96.504C266.301 96.8664 261.228 99.0405 259.054 102.664C256.88 106.288 255.256 117.34 253.981 126.942C252.749 136.217 252.532 150.857 252.532 150.857H255.43V161.003L252.894 164.264L253.256 168.613H242.386L244.56 145.784L248.183 124.043L254.706 92.1558Z" fill="#AA000F"/>
<path d="M299.638 137.812C299.638 143.416 295.095 147.958 289.492 147.958C283.888 147.958 279.346 143.416 279.346 137.812C279.346 132.209 283.888 127.666 289.492 127.666C295.095 127.666 299.638 132.209 299.638 137.812Z" fill="#282828"/>
<path d="M306.16 140.711C306.16 146.315 301.618 150.857 296.014 150.857C290.411 150.857 285.868 146.315 285.868 140.711C285.868 135.108 290.411 130.565 296.014 130.565C301.618 130.565 306.16 135.108 306.16 140.711Z" fill="#282828"/>
<path d="M306.885 170.424C306.885 173.626 304.289 176.222 301.087 176.222C297.885 176.222 295.289 173.626 295.289 170.424C295.289 167.222 297.885 164.627 301.087 164.627C304.289 164.627 306.885 167.222 306.885 170.424Z" fill="#282828"/>
<path d="M287.318 174.048C287.318 177.25 284.722 179.845 281.52 179.845C278.318 179.845 275.722 177.25 275.722 174.048C275.722 170.846 278.318 168.25 281.52 168.25C284.722 168.25 287.318 170.846 287.318 174.048Z" fill="#282828"/>
<path d="M279.708 135.276L290.217 127.666C290.217 127.666 294.34 128.09 296.739 129.116C298.904 130.042 301.812 132.377 301.812 132.377L306.16 139.986L306.885 170.424L303.986 175.497C303.986 175.497 295.768 178.779 291.666 179.483C287.758 180.154 281.52 179.845 281.52 179.845L277.172 177.671H274.998V168.25H277.172V161.003H255.43L252.894 164.264L253.226 168.25L242.748 168.612L244.56 150.857H252.532H255.43H279.346V137.812L279.708 135.276Z" fill="#282828"/>
<path d="M279.346 137.087L288.767 138.537L288.042 168.25H274.998L279.346 137.087Z" fill="#282828"/>
<path d="M246.734 185.281C246.734 187.882 244.625 189.991 242.023 189.991C239.422 189.991 237.313 187.882 237.313 185.281C237.313 182.801 239.229 180.769 241.661 180.584C241.78 180.575 241.901 180.57 242.023 180.57C244.502 180.57 246.533 182.485 246.72 184.915C246.729 185.036 246.734 185.158 246.734 185.281Z" fill="#282828"/>
<path d="M274.998 177.671V168.25H253.226H241.661V180.584C241.78 180.575 241.901 180.57 242.023 180.57C244.502 180.57 246.533 182.485 246.72 184.915L246.734 184.918C246.734 183.107 249.105 181.038 251.444 179.483C254.706 177.671 259.779 177.671 262.315 177.671H274.998Z" fill="#282828"/>
<path d="M145.737 35.9905C147.899 31.1533 157.332 27.6563 157.332 27.6563V39.9764C157.332 39.9764 155.623 43.4011 155.158 45.7741C154.613 48.5513 154.795 53.0212 154.795 53.0212L155.883 82.7343H144.65V46.8611C144.65 46.8611 144.062 39.7369 145.737 35.9905Z" fill="#C4C4C4"/>
<path d="M59.7583 96.1415L246.371 97.591L232.239 181.295L42.0029 174.773L59.7583 96.1415Z" fill="black"/>
<path d="M59.7583 96.1415L246.371 97.591L232.239 181.295L42.0029 174.773L59.7583 96.1415Z" fill="black"/>
<path d="M86.5727 78.0238L276.085 80.9226C276.085 80.9226 253.808 82.2617 250.72 87.0827C248.159 91.0792 245.284 97.9533 245.284 97.9533L59.7584 96.1415C59.7584 96.1415 64.3898 87.295 70.2667 83.0967C75.6933 79.2202 86.5727 78.0238 86.5727 78.0238Z" fill="#E40014"/>
<path d="M42.003 174.773L241.661 181.657V205.935L187.307 212.82H121.721L60.8454 207.747L44.9018 203.036L36.5676 195.065L42.003 174.773Z" fill="#E40014"/>
<path d="M248.183 85.6334C248.908 76.9369 286.593 81.6474 286.593 81.6474C286.593 81.6474 325.002 83.8216 327.901 85.271C330.8 86.7204 331.887 90.7063 331.887 90.7063H320.654L285.506 89.6192C285.506 89.6192 260.866 87.4452 256.517 93.9675C252.169 100.49 249.088 120.482 246.371 138.175C243.779 155.057 241.661 181.658 241.661 181.658L232.24 181.295C232.24 181.295 235.291 154.502 238.037 137.45C241.316 117.093 242.748 100.49 248.183 85.6334Z" fill="#E40014"/>
<path d="M36.93 243.258L153.971 252.679H219.195L241.661 253.766V262.463L231.877 311.743H197.816H182.959L132.592 309.931L48.5253 301.959L27.8711 300.872V290.002L31.1323 258.114L36.5676 250.867L36.93 243.258Z" fill="#282828"/>
<path d="M36.5676 208.109L152.521 215.719H207.599L230.065 208.109V244.345H36.5676V208.109Z" fill="#282828"/>
<path d="M224.63 297.611V287.465C224.63 287.465 224.63 289.639 218.832 291.813C213.035 293.988 118.822 290.364 118.822 290.364C118.822 290.364 57.9465 286.74 52.8736 285.653C47.8006 284.566 34.0311 281.305 34.0311 281.305H31.1322L30.0452 285.653L48.8876 293.625L120.996 296.162L185.496 301.959L224.63 297.611Z" fill="#6F6F6F"/>
<path d="M36.5676 195.065C36.5676 195.065 55.7725 206.298 60.8454 207.385C65.9184 208.472 115.923 209.559 115.923 209.559C115.923 209.559 181.51 213.545 187.67 212.458C193.83 211.371 241.661 205.935 241.661 205.935V217.531C241.661 217.531 211.217 220.508 191.656 220.429C185.569 220.405 176.074 220.067 176.074 220.067L83.6738 216.806C83.6738 216.806 68.0914 216.405 58.3089 214.632C50.9807 213.303 39.8288 209.921 39.8288 209.921L36.5676 195.065Z" fill="#AA000F"/>
<path d="M35.8429 230.213C35.8429 230.213 47.4383 233.112 52.5112 234.199C57.5842 235.286 118.098 239.272 118.098 239.272C118.098 239.272 212.31 243.983 218.108 240.721C223.905 237.46 223.905 236.373 223.905 236.373V246.519L120.272 245.07L41.6406 239.272L35.8429 234.199V230.213Z" fill="#6F6F6F"/>
<path d="M35.8429 230.213C35.8429 230.213 47.4383 233.112 52.5112 234.199C57.5842 235.286 118.098 239.272 118.098 239.272C118.098 239.272 212.31 243.983 218.108 240.721C223.905 237.46 223.905 236.373 223.905 236.373V246.519L120.272 245.07L41.6406 239.272L35.8429 234.199V230.213Z" fill="url(#paint9_radial)"/>
<path d="M37.2924 215.719C37.2924 215.719 55.4101 221.879 57.9466 222.241C60.4831 222.604 118.46 226.227 118.46 226.227C118.46 226.227 180.785 228.764 182.234 228.401C183.684 228.039 224.63 227.314 224.63 227.314V230.575C224.63 230.575 184.409 232.025 182.234 232.387C180.06 232.75 118.46 230.213 118.46 230.213C118.46 230.213 61.6841 226.589 57.9466 226.227C53.9607 225.865 37.2924 220.429 37.2924 220.429V215.719Z" fill="url(#paint10_linear)"/>
<path d="M129.351 227.314C129.351 234.319 123.83 239.997 117.021 239.997C110.211 239.997 104.69 234.319 104.69 227.314C104.69 220.31 110.211 214.632 117.021 214.632C123.83 214.632 129.351 220.31 129.351 227.314Z" fill="url(#paint11_linear)"/>
<path d="M36.5676 195.065L39.8288 209.921C39.8288 209.921 39.7702 212.264 39.1041 213.545C38.594 214.525 37.2924 215.719 37.2924 215.719V224.778C37.2924 224.778 36.93 229.488 38.0171 233.474C40.5536 238.185 53.9607 239.272 53.9607 239.272L115.923 242.895L190.931 245.432C190.931 245.432 215.934 245.432 219.557 243.62C223.181 241.808 223.905 233.112 223.905 233.112L224.992 218.618C224.992 218.618 225.298 212.092 227.891 208.834C231.47 204.338 241.661 205.935 241.661 205.935V254.491H172.451L64.1067 248.693L32.9441 243.62L34.0312 218.98L36.5676 195.065Z" fill="url(#paint12_linear)"/>
<path d="M226.442 263.187C226.442 263.187 231.626 261.07 235.138 260.651C237.668 260.349 241.661 260.651 241.661 260.651V311.743H235.863H226.079C226.079 311.743 226.442 309.931 226.079 308.844C225.717 307.757 219.919 303.047 219.919 303.047H190.569L197.816 311.743H182.234L175.35 303.047L51.0618 295.799L49.2501 302.322H42.003L44.9018 294.712L27.8711 290.726V285.291V256.665L36.5676 250.867L31.4946 258.114V285.291L51.0618 292.176L183.684 300.148L216.296 297.974C216.296 297.974 220.741 297.393 222.456 295.437C224.02 293.654 224.268 289.639 224.268 289.639L226.442 263.187Z" fill="#C4C4C4"/>
<path d="M226.442 263.187C226.442 263.187 231.626 261.07 235.138 260.651C237.668 260.349 241.661 260.651 241.661 260.651V311.743H235.863H226.079C226.079 311.743 226.442 309.931 226.079 308.844C225.717 307.757 219.919 303.047 219.919 303.047H190.569L197.816 311.743H182.234L175.35 303.047L51.0618 295.799L49.2501 302.322H42.003L44.9018 294.712L27.8711 290.726V285.291V256.665L36.5676 250.867L31.4946 258.114V285.291L51.0618 292.176L183.684 300.148L216.296 297.974C216.296 297.974 220.741 297.393 222.456 295.437C224.02 293.654 224.268 289.639 224.268 289.639L226.442 263.187Z" fill="url(#paint13_linear)"/>
<path d="M56.1348 272.246C56.1348 272.246 92.3263 276.05 115.561 277.319V274.783C92.336 273.517 56.1348 269.71 56.1348 269.71C56.1348 269.71 56.6255 263.12 53.9607 259.564C52.1947 257.208 48.163 255.216 48.163 255.216L34.7558 253.041L31.4946 258.114V274.42L44.5394 277.682C44.5394 277.682 49.1785 278.092 51.7865 276.957C56.4971 275.508 56.1348 272.246 56.1348 272.246Z" fill="#C4C4C4"/>
<path d="M56.1348 272.246C56.1348 272.246 92.3263 276.05 115.561 277.319V274.783C92.336 273.517 56.1348 269.71 56.1348 269.71C56.1348 269.71 56.6255 263.12 53.9607 259.564C52.1947 257.208 48.163 255.216 48.163 255.216L34.7558 253.041L31.4946 258.114V274.42L44.5394 277.682C44.5394 277.682 49.1785 278.092 51.7865 276.957C56.4971 275.508 56.1348 272.246 56.1348 272.246Z" fill="url(#paint14_linear)"/>
<path d="M179.336 279.856C179.336 279.856 138.8 278.518 115.561 277.319L115.561 274.782C138.79 275.983 179.336 276.957 179.336 276.957C179.336 276.957 179.661 269.966 182.687 266.712C184.693 264.556 185.496 263.55 188.913 263.003C192.33 262.456 226.08 263.187 226.08 263.187L226.442 263.187L226.079 268.985L224.63 287.828C224.63 287.828 189.119 289.277 186.945 288.552C184.771 287.828 183.097 287.461 181.51 285.653C179.336 283.117 179.336 279.856 179.336 279.856Z" fill="#C4C4C4"/>
<path d="M179.336 279.856C179.336 279.856 138.8 278.518 115.561 277.319L115.561 274.782C138.79 275.983 179.336 276.957 179.336 276.957C179.336 276.957 179.661 269.966 182.687 266.712C184.693 264.556 185.496 263.55 188.913 263.003C192.33 262.456 226.08 263.187 226.08 263.187L226.442 263.187L226.079 268.985L224.63 287.828C224.63 287.828 189.119 289.277 186.945 288.552C184.771 287.828 183.097 287.461 181.51 285.653C179.336 283.117 179.336 279.856 179.336 279.856Z" fill="url(#paint15_linear)"/>
<path d="M286.955 252.317C300 243.258 321.379 244.345 321.379 244.345V254.491C321.379 254.491 306.16 252.976 292.753 260.289C276.809 268.985 277.172 296.162 275.722 328.411H271.736L181.51 316.454L50.6995 307.757L27.8711 310.656V300.872L49.6124 301.96L181.51 311.381H226.442H241.661L266.663 316.454C266.663 316.454 265.939 264.268 286.955 252.317Z" fill="url(#paint16_linear)"/>
<path d="M286.955 252.317C300 243.258 321.379 244.345 321.379 244.345V254.491C321.379 254.491 306.16 252.976 292.753 260.289C276.809 268.985 277.172 296.162 275.722 328.411H271.736L181.51 316.454L50.6995 307.757L27.8711 310.656V300.872L49.6124 301.96L181.51 311.381H226.442H241.661L266.663 316.454C266.663 316.454 265.939 264.268 286.955 252.317Z" fill="url(#paint17_radial)"/>
<path d="M187.307 276.642C187.307 271.755 191.509 267.926 196.374 268.379L201.719 268.876C202.497 268.949 203.28 268.952 204.059 268.885L210.911 268.302C215.758 267.89 219.919 271.712 219.919 276.577V276.577C219.919 280.89 216.617 284.485 212.32 284.851L204.277 285.535C203.353 285.614 202.425 285.61 201.502 285.524L194.837 284.904C190.57 284.507 187.307 280.927 187.307 276.642V276.642Z" fill="white"/>
<path d="M32.8335 265.677C33.2051 261.933 36.7584 259.35 40.4347 260.151L42.0087 260.495C42.5673 260.616 43.1376 260.676 43.7093 260.672L46.2575 260.654C49.9996 260.627 52.9392 263.85 52.5695 267.574V267.574C52.2514 270.779 49.5668 273.228 46.3463 273.25L42.6577 273.276C41.9533 273.281 41.2505 273.208 40.5623 273.058L37.7538 272.446C34.6335 271.765 32.518 268.855 32.8335 265.677V265.677Z" fill="white"/>
<path d="M321.379 244.345L339.497 242.171V252.679L321.379 254.491V244.345Z" fill="#C4C4C4"/>
<path d="M321.379 239.272L339.497 237.098V242.171L321.379 244.345V239.272Z" fill="#DADADA"/>
<path d="M321.379 232.387V225.14L332.612 223.69L339.497 230.213V237.098L321.379 239.272V232.387Z" fill="url(#paint18_linear)"/>
<path d="M321.379 217.893V225.14L332.612 223.691L336.96 217.893L331.887 90.7061H320.654L321.379 154.843V217.893Z" fill="#C4C4C4"/>
<path d="M321.379 217.893V225.14L332.612 223.691L336.96 217.893L331.887 90.7061H320.654L321.379 154.843V217.893Z" fill="url(#paint19_linear)"/>
<path d="M323.553 267.898L349.643 268.985C349.643 268.985 354.659 287.794 355.44 300.148C356.354 314.597 352.542 337.108 352.542 337.108L328.626 334.571C328.626 334.571 332.242 310.429 330.075 295.437C328.48 284.394 323.553 267.898 323.553 267.898Z" fill="url(#paint20_linear)"/>
<path d="M349.643 268.985L494.585 268.26C494.585 268.26 492.429 286.068 489.874 297.249C487.142 309.207 481.54 326.962 481.54 326.962L352.541 337.108C352.541 337.108 355.859 315.28 355.078 301.235C354.366 288.432 349.643 268.985 349.643 268.985Z" fill="url(#paint21_linear)"/>
<path d="M494.585 268.26L499.658 274.058C499.658 274.058 497.802 289.624 495.672 299.423C493.455 309.623 489.874 323.338 488.425 325.15C486.975 326.962 481.54 326.962 481.54 326.962L494.585 268.26Z" fill="#600D0D"/>
<mask id="mask2" style="mask-type:alpha" maskUnits="userSpaceOnUse" x="323" y="267" width="177" height="71">
<path d="M323.553 267.898L349.643 268.985C349.643 268.985 354.659 287.794 355.44 300.148C356.354 314.597 352.542 337.108 352.542 337.108L328.626 334.571C328.626 334.571 332.242 310.429 330.075 295.437C328.48 284.394 323.553 267.898 323.553 267.898Z" fill="#600D0D"/>
<path d="M349.643 268.985L494.585 268.26C494.585 268.26 492.429 286.068 489.874 297.249C487.142 309.207 481.54 326.962 481.54 326.962L352.542 337.108C352.542 337.108 355.859 315.28 355.078 301.235C354.366 288.432 349.643 268.985 349.643 268.985Z" fill="#600D0D"/>
<path d="M494.585 268.26L499.658 274.058C499.658 274.058 497.802 289.624 495.672 299.423C493.455 309.623 489.874 323.338 488.425 325.15C486.975 326.962 481.54 326.962 481.54 326.962L494.585 268.26Z" fill="#600D0D"/>
</mask>
<g mask="url(#mask2)">
<path d="M323.553 267.898L349.643 268.985C349.643 268.985 354.659 287.794 355.44 300.148C356.354 314.597 352.542 337.108 352.542 337.108L328.626 334.571C328.626 334.571 332.242 310.429 330.075 295.437C328.48 284.394 323.553 267.898 323.553 267.898Z" fill="url(#paint22_linear)"/>
<path d="M349.643 268.985L494.585 268.26C494.585 268.26 492.429 286.068 489.874 297.249C487.142 309.207 481.54 326.962 481.54 326.962L352.542 337.108C352.542 337.108 355.859 315.28 355.078 301.235C354.366 288.432 349.643 268.985 349.643 268.985Z" fill="url(#paint23_linear)"/>
<path d="M494.585 268.26L499.658 274.058C499.658 274.058 497.802 289.624 495.672 299.423C493.455 309.623 489.874 323.338 488.425 325.15C486.975 326.962 481.54 326.962 481.54 326.962L494.585 268.26Z" fill="url(#paint24_linear)"/>
</g>
<path d="M310.508 212.82C310.508 212.82 314.857 213.907 314.857 221.154C314.857 226.952 310.508 229.488 310.508 229.488V234.561C310.508 234.561 318.48 234.199 318.48 221.154C318.48 215.84 316.016 205.21 310.508 205.21V212.82Z" fill="black"/>
<path d="M321.741 43.9623C323.904 39.1251 333.337 35.6282 333.337 35.6282V47.9483C333.337 47.9483 331.628 51.373 331.163 53.7459C330.618 56.5232 330.8 60.993 330.8 60.993L331.887 90.7062H320.654V54.833C320.654 54.833 320.067 47.7088 321.741 43.9623Z" fill="#C4C4C4"/>
<defs>
<linearGradient id="paint0_linear" x1="47.0759" y1="307.395" x2="48.163" y2="317.903" gradientUnits="userSpaceOnUse">
<stop stop-color="#0B0A0A"/>
<stop offset="0.660144" stop-color="#6F6F6F"/>
</linearGradient>
<radialGradient id="paint1_radial" cx="0" cy="0" r="1" gradientUnits="userSpaceOnUse" gradientTransform="translate(524.532 291.089) rotate(100.069) scale(39.3785)">
<stop stop-color="#444444"/>
<stop offset="1" stop-color="#222222"/>
</radialGradient>
<linearGradient id="paint2_linear" x1="545.315" y1="302.992" x2="492.005" y2="310.02" gradientUnits="userSpaceOnUse">
<stop stop-color="#C4C4C4"/>
<stop offset="1" stop-color="#C4C4C4" stop-opacity="0"/>
</linearGradient>
<radialGradient id="paint3_radial" cx="0" cy="0" r="1" gradientUnits="userSpaceOnUse" gradientTransform="translate(310.51 288.066) rotate(100.069) scale(49.0655)">
<stop stop-color="#444444"/>
<stop offset="1" stop-color="#222222"/>
</radialGradient>
<linearGradient id="paint4_linear" x1="336.405" y1="302.898" x2="269.981" y2="311.654" gradientUnits="userSpaceOnUse">
<stop stop-color="#C4C4C4"/>
<stop offset="1" stop-color="#C4C4C4" stop-opacity="0"/>
</linearGradient>
<linearGradient id="paint5_linear" x1="304.711" y1="251.954" x2="304.711" y2="376.967" gradientUnits="userSpaceOnUse">
<stop/>
<stop offset="0.700914" stop-opacity="0"/>
</linearGradient>
<radialGradient id="paint6_radial" cx="0" cy="0" r="1" gradientUnits="userSpaceOnUse" gradientTransform="translate(203.976 223.691) rotate(-52.5699) scale(274.244 243.013)">
<stop/>
<stop offset="0.663703" stop-opacity="0"/>
</radialGradient>
<radialGradient id="paint7_radial" cx="0" cy="0" r="1" gradientUnits="userSpaceOnUse" gradientTransform="translate(203.976 223.691) rotate(-52.5699) scale(274.244 243.013)">
<stop/>
<stop offset="0.663703" stop-opacity="0"/>
</radialGradient>
<linearGradient id="paint8_linear" x1="275.43" y1="158.146" x2="275.43" y2="173.828" gradientUnits="userSpaceOnUse">
<stop stop-color="#C4C4C4"/>
<stop offset="1" stop-color="#999999"/>
</linearGradient>
<radialGradient id="paint9_radial" cx="0" cy="0" r="1" gradientUnits="userSpaceOnUse" gradientTransform="translate(116.286 236.373) rotate(91.3322) scale(15.5855)">
<stop stop-color="#3E3E3E"/>
<stop offset="0.779301" stop-color="#6F6F6F"/>
</radialGradient>
<linearGradient id="paint10_linear" x1="120.549" y1="237.323" x2="120.549" y2="247.888" gradientUnits="userSpaceOnUse">
<stop stop-color="#C4C4C4"/>
<stop offset="1" stop-color="#999999"/>
</linearGradient>
<linearGradient id="paint11_linear" x1="120.549" y1="237.323" x2="120.549" y2="247.888" gradientUnits="userSpaceOnUse">
<stop stop-color="#C4C4C4"/>
<stop offset="1" stop-color="#999999"/>
</linearGradient>
<linearGradient id="paint12_linear" x1="120.549" y1="237.323" x2="120.549" y2="247.888" gradientUnits="userSpaceOnUse">
<stop stop-color="#C4C4C4"/>
<stop offset="1" stop-color="#999999"/>
</linearGradient>
<linearGradient id="paint13_linear" x1="117.453" y1="294.414" x2="117.453" y2="305.301" gradientUnits="userSpaceOnUse">
<stop stop-color="#C4C4C4"/>
<stop offset="1" stop-color="#999999"/>
</linearGradient>
<linearGradient id="paint14_linear" x1="30.4076" y1="264.275" x2="36.2052" y2="264.637" gradientUnits="userSpaceOnUse">
<stop stop-color="#A0A0A0"/>
<stop offset="1" stop-color="#C4C4C4"/>
</linearGradient>
<linearGradient id="paint15_linear" x1="230.065" y1="280.218" x2="204.338" y2="278.044" gradientUnits="userSpaceOnUse">
<stop stop-color="#8D8D8D"/>
<stop offset="1" stop-color="#CCCCCC" stop-opacity="0"/>
</linearGradient>
<linearGradient id="paint16_linear" x1="150.71" y1="308.844" x2="148.898" y2="339.282" gradientUnits="userSpaceOnUse">
<stop stop-color="#999999"/>
<stop offset="0.291667" stop-color="#8A8A8A"/>
</linearGradient>
<radialGradient id="paint17_radial" cx="0" cy="0" r="1" gradientUnits="userSpaceOnUse" gradientTransform="translate(303.261 230.213) rotate(112.479) scale(102.352)">
<stop stop-color="#C4C4C4"/>
<stop offset="1" stop-color="white" stop-opacity="0"/>
</radialGradient>
<linearGradient id="paint18_linear" x1="329.351" y1="238.547" x2="326.452" y2="224.053" gradientUnits="userSpaceOnUse">
<stop stop-color="#C4C4C4"/>
<stop offset="1" stop-color="#888888"/>
</linearGradient>
<linearGradient id="paint19_linear" x1="328.626" y1="175.86" x2="328.626" y2="229.126" gradientUnits="userSpaceOnUse">
<stop stop-color="#C4C4C4"/>
<stop offset="1" stop-color="#999999"/>
</linearGradient>
<linearGradient id="paint20_linear" x1="340.473" y1="267.173" x2="340.473" y2="337.108" gradientUnits="userSpaceOnUse">
<stop stop-color="#971515"/>
<stop offset="0.63819" stop-color="#600D0D"/>
</linearGradient>
<linearGradient id="paint21_linear" x1="422.114" y1="268.26" x2="422.114" y2="337.108" gradientUnits="userSpaceOnUse">
<stop stop-color="#E40014"/>
<stop offset="0.591312" stop-color="#AA000F"/>
</linearGradient>
<linearGradient id="paint22_linear" x1="428.636" y1="250.505" x2="431.897" y2="355.588" gradientUnits="userSpaceOnUse">
<stop/>
<stop offset="0.451403" stop-opacity="0"/>
</linearGradient>
<linearGradient id="paint23_linear" x1="428.636" y1="250.505" x2="431.897" y2="355.588" gradientUnits="userSpaceOnUse">
<stop/>
<stop offset="0.451403" stop-opacity="0"/>
</linearGradient>
<linearGradient id="paint24_linear" x1="428.636" y1="250.505" x2="431.897" y2="355.588" gradientUnits="userSpaceOnUse">
<stop/>
<stop offset="0.451403" stop-opacity="0"/>
</linearGradient>
</defs>
</svg>
