<svg width="30" height="30" viewBox="0 0 30 30" fill="none" xmlns="http://www.w3.org/2000/svg">
<path fill-rule="evenodd" clip-rule="evenodd" d="M2.704 19.8741C2.95541 19.8478 3.18095 20.0257 3.20777 20.2714C3.27876 20.9216 3.81784 22.3648 5.34951 22.8844C5.58836 22.9653 5.71471 23.2201 5.63174 23.4535C5.54888 23.6869 5.28793 23.8104 5.0492 23.7293C3.05746 23.0538 2.38948 21.2101 2.29736 20.3662C2.27053 20.1206 2.45261 19.9003 2.704 19.8741ZM4.12506 19.0742C4.09715 18.8286 3.87081 18.6517 3.61953 18.679C3.36824 18.7063 3.18717 18.9275 3.21509 19.1729C3.32911 20.1755 4.15521 22.3426 6.58371 23.1336C6.82359 23.2116 7.08282 23.085 7.16282 22.8507C7.24282 22.6163 7.11315 22.3631 6.87327 22.2849C4.89767 21.6415 4.21494 19.8644 4.12506 19.0742ZM27.2019 15.8606C27.0746 16.074 27.1483 16.3479 27.3666 16.4724C27.585 16.5968 27.8653 16.5248 27.9928 16.3115C28.5131 15.4401 29.1725 13.2191 27.7055 11.1695C27.5606 10.9671 27.2752 10.9177 27.068 11.0593C26.8608 11.2009 26.8103 11.4797 26.9552 11.6821C28.1485 13.3495 27.612 15.1739 27.2019 15.8606ZM28.6689 15.4339C28.5405 15.6467 28.6131 15.9209 28.8309 16.0463C29.0487 16.1718 29.3293 16.1009 29.4577 15.8881C29.8988 15.157 30.4876 13.2878 29.301 11.5852C29.1588 11.381 28.874 11.3282 28.665 11.4672C28.4561 11.6062 28.4019 11.8844 28.5443 12.0886C29.4568 13.3979 29.0087 14.8706 28.6689 15.4339ZM1.52931 9.263C1.14966 8.63952 0.50737 7.48962 0.18964 6.91679C0.114791 6.83338 0.0586199 6.73365 0.0275359 6.62371L1.14603e-05 6.57374L0.0128639 6.5615C0.00441769 6.51705 0 6.47119 0 6.42434C0 6.01177 0.342325 5.67732 0.764614 5.67732C1.04027 5.67732 1.28186 5.81984 1.41639 6.03357C1.60674 6.30555 2.43594 7.48112 3.05843 8.2172C3.73139 9.01298 4.89355 10.1593 4.89355 10.1593C4.89355 10.1593 5.51294 10.6846 5.81108 10.4581C6.09399 10.2432 5.81108 9.56166 5.81108 9.56166L3.05863 3.43646C2.8728 3.30018 2.75258 3.08314 2.75258 2.83866C2.75258 2.4261 3.09492 2.09165 3.5172 2.09165C3.93948 2.09165 4.28181 2.4261 4.28181 2.83866L7.34033 8.51597C7.34033 8.51597 7.71526 8.93561 7.95194 8.81474C8.17007 8.70337 8.10484 8.21709 8.10484 8.21709L7.34021 1.19521L7.35086 1.19371C7.34387 1.1454 7.34021 1.09602 7.34021 1.04582C7.34021 0.468224 7.81952 0 8.41064 0C8.95049 0 9.39695 0.390344 9.47054 0.897871L9.48107 0.896395L10.5515 7.76893C10.5515 7.76893 10.6817 8.81474 11.1632 8.81474C11.6447 8.81474 11.775 7.76893 11.775 7.76893C11.775 7.76893 12.3276 5.78203 12.5396 4.48209C12.7284 3.32397 12.8454 1.49403 12.8454 1.49403C12.8454 0.998951 13.2562 0.597615 13.7629 0.597615C14.2697 0.597615 14.6804 0.998951 14.6804 1.49403C14.6804 1.5636 14.6723 1.63132 14.657 1.69633C14.5718 2.44097 14.281 5.07905 14.2216 6.87252C14.1772 8.21373 14.2216 10.3088 14.2216 10.3088C14.2216 10.3088 11.0951 10.7904 10.2457 11.2052C10.1489 11.2525 10.0406 11.2961 9.92685 11.3419C9.32199 11.5851 8.56366 11.89 8.56366 13.1474C8.56366 14.226 9.5478 14.8179 10.0879 15.1428C10.1462 15.178 10.1996 15.21 10.2457 15.2392C11.554 16.0646 14.2216 15.5379 14.2216 15.5379L10.2457 21.2153C10.2457 21.2153 9.40577 21.1809 8.86946 21.2153C8.38901 21.2461 7.64613 21.3647 7.64613 21.3647C7.64613 21.3647 6.05622 20.6987 5.35225 19.5719C4.65676 18.4583 4.5732 16.8519 4.50568 15.5535C4.46596 14.7897 4.43178 14.1324 4.2818 13.7451C4.0265 13.0857 3.51731 12.1015 3.51731 12.1015C3.51731 12.1015 2.23226 10.4173 1.52931 9.263ZM13.4493 27.7587L13.4396 27.7544L16.3229 21.399C16.3229 21.399 16.7891 20.449 16.3833 20.196C15.9775 19.9429 15.2917 20.7559 15.2917 20.7559C15.2917 20.7559 13.7314 22.14 12.8368 23.1242C12.0397 24.0011 10.9332 25.4819 10.9332 25.4819C10.6605 25.8992 10.0931 26.0214 9.66602 25.7551C9.2389 25.4886 9.11381 24.9344 9.38643 24.5171C9.42477 24.4585 9.46894 24.4056 9.5177 24.359C9.99952 23.7761 11.6978 21.7054 12.7357 20.225C13.0354 19.7976 13.2836 19.4598 13.5179 19.1411C13.8905 18.6342 14.2278 18.1753 14.6804 17.4801C15.0596 16.8978 15.5575 15.9861 15.598 15.8367C15.6029 15.8185 15.6128 15.7897 15.6258 15.7524C15.7187 15.4849 15.9643 14.7776 15.598 14.3427C15.1736 13.839 14.0687 13.8945 14.0687 13.8945C14.0687 13.8945 12.5144 14.1828 11.6219 14.0439C11.4682 14.0199 11.3091 14.0029 11.1511 13.986C10.4407 13.9099 9.74842 13.8358 9.63397 13.1474C9.513 12.4194 10.3569 12.3578 11.2528 12.2924C11.7082 12.2591 12.1771 12.2249 12.5395 12.1016C13.7253 11.6984 15.4449 10.9065 15.4449 10.9065C15.4449 10.9065 17.8917 9.71126 19.5739 9.11362C19.5739 9.11362 21.3918 8.57277 22.3265 8.96423C22.7729 9.15107 23.0356 9.45756 23.3085 9.77612C23.5102 10.0114 23.7175 10.2532 24.0086 10.4582C24.3276 10.6828 24.6417 10.7775 24.9466 10.8694C25.3185 10.9816 25.6765 11.0896 26.0125 11.4237C26.8164 12.2233 26.9857 12.8208 26.9583 14.1408C26.9308 15.4638 26.1942 16.9009 25.6044 18.052C25.2706 18.7033 24.9838 19.2629 24.899 19.6583C24.751 20.3483 24.6381 21.4455 24.6381 21.4455C24.6381 21.4455 24.7935 23.5407 24.7502 24.8833C24.7269 25.6083 24.6349 26.9152 24.587 27.565C24.6042 27.6747 24.5967 27.7883 24.5623 27.8973L24.558 27.9539L24.5403 27.9575C24.5231 27.9994 24.5014 28.0404 24.4757 28.0798C24.2484 28.4276 23.7757 28.5295 23.4198 28.3075C23.1875 28.1626 23.0622 27.9155 23.0666 27.6645C23.056 27.3353 23.0046 25.9085 22.8853 24.9608C22.7564 23.9362 22.4083 22.3589 22.4083 22.3589C22.4083 22.3589 22.1756 21.5906 21.7995 21.6248C21.4428 21.6572 21.3058 22.3803 21.3058 22.3803L20.252 28.9901C20.3335 29.2027 20.3153 29.4488 20.1806 29.6548C19.9534 30.0026 19.4806 30.1046 19.1247 29.8825C18.7687 29.6606 18.6645 29.1986 18.8917 28.8509L19.4409 22.4578C19.4409 22.4578 19.3561 21.9069 19.09 21.8843C18.8447 21.8635 18.632 22.3076 18.632 22.3076L15.4087 28.6282L15.3988 28.6238C15.3781 28.6682 15.354 28.7117 15.3264 28.7541C15.0082 29.2409 14.3464 29.3836 13.8481 29.0727C13.3931 28.789 13.2318 28.2252 13.4493 27.7587Z" fill="white"/>
</svg>
