<svg width="30" height="30" viewBox="0 0 30 30" fill="none" xmlns="http://www.w3.org/2000/svg">
<path d="M0 10.75C0 9.75544 0.395088 8.80161 1.09835 8.09835C1.80161 7.39509 2.75544 7 3.75 7H26.25C27.2446 7 28.1984 7.39509 28.9016 8.09835C29.6049 8.80161 30 9.75544 30 10.75V20.125C30 21.1196 29.6049 22.0734 28.9016 22.7766C28.1984 23.4799 27.2446 23.875 26.25 23.875H3.75C2.75544 23.875 1.80161 23.4799 1.09835 22.7766C0.395088 22.0734 0 21.1196 0 20.125V10.75ZM24.375 11.2188V12.1562C24.375 12.415 24.585 12.625 24.8438 12.625H25.7812C25.9056 12.625 26.0248 12.5756 26.1127 12.4877C26.2006 12.3998 26.25 12.2806 26.25 12.1562V11.2188C26.25 11.0944 26.2006 10.9752 26.1127 10.8873C26.0248 10.7994 25.9056 10.75 25.7812 10.75H24.8438C24.7194 10.75 24.6002 10.7994 24.5123 10.8873C24.4244 10.9752 24.375 11.0944 24.375 11.2188ZM4.21875 14.5C4.09443 14.5 3.9752 14.5494 3.88729 14.6373C3.79939 14.7252 3.75 14.8444 3.75 14.9688V15.9062C3.75 16.165 3.96 16.375 4.21875 16.375H5.15625C5.28057 16.375 5.3998 16.3256 5.48771 16.2377C5.57561 16.1498 5.625 16.0306 5.625 15.9062V14.9688C5.625 14.8444 5.57561 14.7252 5.48771 14.6373C5.3998 14.5494 5.28057 14.5 5.15625 14.5H4.21875ZM7.5 14.9688V15.9062C7.5 16.165 7.71 16.375 7.96875 16.375H8.90625C9.03057 16.375 9.1498 16.3256 9.23771 16.2377C9.32561 16.1498 9.375 16.0306 9.375 15.9062V14.9688C9.375 14.8444 9.32561 14.7252 9.23771 14.6373C9.1498 14.5494 9.03057 14.5 8.90625 14.5H7.96875C7.84443 14.5 7.7252 14.5494 7.63729 14.6373C7.54939 14.7252 7.5 14.8444 7.5 14.9688ZM11.7188 14.5C11.5944 14.5 11.4752 14.5494 11.3873 14.6373C11.2994 14.7252 11.25 14.8444 11.25 14.9688V15.9062C11.25 16.165 11.46 16.375 11.7188 16.375H12.6562C12.7806 16.375 12.8998 16.3256 12.9877 16.2377C13.0756 16.1498 13.125 16.0306 13.125 15.9062V14.9688C13.125 14.8444 13.0756 14.7252 12.9877 14.6373C12.8998 14.5494 12.7806 14.5 12.6562 14.5H11.7188ZM15 14.9688V15.9062C15 16.165 15.21 16.375 15.4688 16.375H16.4062C16.5306 16.375 16.6498 16.3256 16.7377 16.2377C16.8256 16.1498 16.875 16.0306 16.875 15.9062V14.9688C16.875 14.8444 16.8256 14.7252 16.7377 14.6373C16.6498 14.5494 16.5306 14.5 16.4062 14.5H15.4688C15.3444 14.5 15.2252 14.5494 15.1373 14.6373C15.0494 14.7252 15 14.8444 15 14.9688V14.9688ZM24.8438 14.5C24.7194 14.5 24.6002 14.5494 24.5123 14.6373C24.4244 14.7252 24.375 14.8444 24.375 14.9688V15.9062C24.375 16.165 24.585 16.375 24.8438 16.375H25.7812C25.9056 16.375 26.0248 16.3256 26.1127 16.2377C26.2006 16.1498 26.25 16.0306 26.25 15.9062V14.9688C26.25 14.8444 26.2006 14.7252 26.1127 14.6373C26.0248 14.5494 25.9056 14.5 25.7812 14.5H24.8438ZM24.8438 18.25C24.7194 18.25 24.6002 18.2994 24.5123 18.3873C24.4244 18.4752 24.375 18.5944 24.375 18.7188V19.6562C24.375 19.915 24.585 20.125 24.8438 20.125H25.7812C25.9056 20.125 26.0248 20.0756 26.1127 19.9877C26.2006 19.8998 26.25 19.7806 26.25 19.6562V18.7188C26.25 18.5944 26.2006 18.4752 26.1127 18.3873C26.0248 18.2994 25.9056 18.25 25.7812 18.25H24.8438ZM19.2188 14.5C19.0944 14.5 18.9752 14.5494 18.8873 14.6373C18.7994 14.7252 18.75 14.8444 18.75 14.9688V15.9062C18.75 16.165 18.96 16.375 19.2188 16.375H22.0312C22.1556 16.375 22.2748 16.3256 22.3627 16.2377C22.4506 16.1498 22.5 16.0306 22.5 15.9062V14.9688C22.5 14.8444 22.4506 14.7252 22.3627 14.6373C22.2748 14.5494 22.1556 14.5 22.0312 14.5H19.2188ZM20.625 18.7188V19.6562C20.625 19.915 20.835 20.125 21.0938 20.125H22.0312C22.1556 20.125 22.2748 20.0756 22.3627 19.9877C22.4506 19.8998 22.5 19.7806 22.5 19.6562V18.7188C22.5 18.5944 22.4506 18.4752 22.3627 18.3873C22.2748 18.2994 22.1556 18.25 22.0312 18.25H21.0938C20.9694 18.25 20.8502 18.2994 20.7623 18.3873C20.6744 18.4752 20.625 18.5944 20.625 18.7188ZM21.0938 10.75C20.9694 10.75 20.8502 10.7994 20.7623 10.8873C20.6744 10.9752 20.625 11.0944 20.625 11.2188V12.1562C20.625 12.415 20.835 12.625 21.0938 12.625H22.0312C22.1556 12.625 22.2748 12.5756 22.3627 12.4877C22.4506 12.3998 22.5 12.2806 22.5 12.1562V11.2188C22.5 11.0944 22.4506 10.9752 22.3627 10.8873C22.2748 10.7994 22.1556 10.75 22.0312 10.75H21.0938ZM16.875 11.2188V12.1562C16.875 12.415 17.085 12.625 17.3438 12.625H18.2812C18.4056 12.625 18.5248 12.5756 18.6127 12.4877C18.7006 12.3998 18.75 12.2806 18.75 12.1562V11.2188C18.75 11.0944 18.7006 10.9752 18.6127 10.8873C18.5248 10.7994 18.4056 10.75 18.2812 10.75H17.3438C17.2194 10.75 17.1002 10.7994 17.0123 10.8873C16.9244 10.9752 16.875 11.0944 16.875 11.2188ZM13.5938 10.75C13.4694 10.75 13.3502 10.7994 13.2623 10.8873C13.1744 10.9752 13.125 11.0944 13.125 11.2188V12.1562C13.125 12.415 13.335 12.625 13.5938 12.625H14.5312C14.6556 12.625 14.7748 12.5756 14.8627 12.4877C14.9506 12.3998 15 12.2806 15 12.1562V11.2188C15 11.0944 14.9506 10.9752 14.8627 10.8873C14.7748 10.7994 14.6556 10.75 14.5312 10.75H13.5938ZM9.375 11.2188V12.1562C9.375 12.415 9.585 12.625 9.84375 12.625H10.7812C10.9056 12.625 11.0248 12.5756 11.1127 12.4877C11.2006 12.3998 11.25 12.2806 11.25 12.1562V11.2188C11.25 11.0944 11.2006 10.9752 11.1127 10.8873C11.0248 10.7994 10.9056 10.75 10.7812 10.75H9.84375C9.71943 10.75 9.6002 10.7994 9.51229 10.8873C9.42439 10.9752 9.375 11.0944 9.375 11.2188ZM4.21875 10.75C4.09443 10.75 3.9752 10.7994 3.88729 10.8873C3.79939 10.9752 3.75 11.0944 3.75 11.2188V12.1562C3.75 12.415 3.96 12.625 4.21875 12.625H7.03125C7.15557 12.625 7.2748 12.5756 7.36271 12.4877C7.45061 12.3998 7.5 12.2806 7.5 12.1562V11.2188C7.5 11.0944 7.45061 10.9752 7.36271 10.8873C7.2748 10.7994 7.15557 10.75 7.03125 10.75H4.21875ZM3.75 18.7188V19.6562C3.75 19.915 3.96 20.125 4.21875 20.125H5.15625C5.28057 20.125 5.3998 20.0756 5.48771 19.9877C5.57561 19.8998 5.625 19.7806 5.625 19.6562V18.7188C5.625 18.5944 5.57561 18.4752 5.48771 18.3873C5.3998 18.2994 5.28057 18.25 5.15625 18.25H4.21875C4.09443 18.25 3.9752 18.2994 3.88729 18.3873C3.79939 18.4752 3.75 18.5944 3.75 18.7188ZM7.96875 18.25C7.84443 18.25 7.7252 18.2994 7.63729 18.3873C7.54939 18.4752 7.5 18.5944 7.5 18.7188V19.6562C7.5 19.915 7.71 20.125 7.96875 20.125H18.2812C18.4056 20.125 18.5248 20.0756 18.6127 19.9877C18.7006 19.8998 18.75 19.7806 18.75 19.6562V18.7188C18.75 18.5944 18.7006 18.4752 18.6127 18.3873C18.5248 18.2994 18.4056 18.25 18.2812 18.25H7.96875Z" fill="white"/>
</svg>
