<svg width="24" height="24" viewBox="0 0 24 24" fill="none" xmlns="http://www.w3.org/2000/svg">
<path d="M20.4 9.00001H20.016L18.516 5.25601C18.2481 4.59032 17.7874 4.01988 17.193 3.6179C16.5986 3.21592 15.8976 3.00075 15.18 3.00001H7.98C7.14635 2.99763 6.3377 3.28464 5.6921 3.81207C5.04649 4.3395 4.60395 5.07464 4.44 5.89201L3.816 9.00001H3.6C2.64522 9.00001 1.72955 9.37929 1.05442 10.0544C0.379285 10.7296 0 11.6452 0 12.6V16.2C0 16.5183 0.126428 16.8235 0.351472 17.0485C0.576515 17.2736 0.88174 17.4 1.2 17.4H2.4C2.4 18.3548 2.77928 19.2705 3.45442 19.9456C4.12955 20.6207 5.04522 21 6 21C6.95478 21 7.87045 20.6207 8.54559 19.9456C9.22072 19.2705 9.6 18.3548 9.6 17.4H14.4C14.4 18.3548 14.7793 19.2705 15.4544 19.9456C16.1295 20.6207 17.0452 21 18 21C18.9548 21 19.8705 20.6207 20.5456 19.9456C21.2207 19.2705 21.6 18.3548 21.6 17.4H22.8C23.1183 17.4 23.4235 17.2736 23.6485 17.0485C23.8736 16.8235 24 16.5183 24 16.2V12.6C24 11.6452 23.6207 10.7296 22.9456 10.0544C22.2705 9.37929 21.3548 9.00001 20.4 9.00001ZM13.2 5.40001H15.18C15.4183 5.40217 15.6505 5.47522 15.8471 5.60986C16.0438 5.7445 16.1958 5.93462 16.284 6.15601L17.424 9.00001H13.2V5.40001ZM6.792 6.36001C6.8481 6.08488 6.99891 5.83814 7.21817 5.66273C7.43743 5.48732 7.71126 5.39435 7.992 5.40001H10.8V9.00001H6.264L6.792 6.36001ZM6 18.6C5.76266 18.6 5.53065 18.5296 5.33332 18.3978C5.13598 18.2659 4.98217 18.0785 4.89134 17.8592C4.80052 17.64 4.77676 17.3987 4.82306 17.1659C4.86936 16.9331 4.98365 16.7193 5.15147 16.5515C5.3193 16.3837 5.53311 16.2694 5.76589 16.2231C5.99867 16.1768 6.23995 16.2005 6.45922 16.2913C6.67849 16.3822 6.86591 16.536 6.99776 16.7333C7.12962 16.9307 7.2 17.1627 7.2 17.4C7.2 17.7183 7.07357 18.0235 6.84853 18.2485C6.62348 18.4736 6.31826 18.6 6 18.6ZM18 18.6C17.7627 18.6 17.5307 18.5296 17.3333 18.3978C17.136 18.2659 16.9822 18.0785 16.8913 17.8592C16.8005 17.64 16.7768 17.3987 16.8231 17.1659C16.8694 16.9331 16.9836 16.7193 17.1515 16.5515C17.3193 16.3837 17.5331 16.2694 17.7659 16.2231C17.9987 16.1768 18.2399 16.2005 18.4592 16.2913C18.6785 16.3822 18.8659 16.536 18.9978 16.7333C19.1296 16.9307 19.2 17.1627 19.2 17.4C19.2 17.7183 19.0736 18.0235 18.8485 18.2485C18.6235 18.4736 18.3183 18.6 18 18.6ZM21.6 15H20.664C20.3266 14.6288 19.9153 14.3322 19.4565 14.1292C18.9978 13.9262 18.5017 13.8214 18 13.8214C17.4983 13.8214 17.0022 13.9262 16.5435 14.1292C16.0847 14.3322 15.6734 14.6288 15.336 15H8.664C8.32658 14.6288 7.9153 14.3322 7.45654 14.1292C6.99778 13.9262 6.50166 13.8214 6 13.8214C5.49834 13.8214 5.00222 13.9262 4.54346 14.1292C4.0847 14.3322 3.67342 14.6288 3.336 15H2.4V12.6C2.4 12.2817 2.52643 11.9765 2.75147 11.7515C2.97652 11.5264 3.28174 11.4 3.6 11.4H20.4C20.7183 11.4 21.0235 11.5264 21.2485 11.7515C21.4736 11.9765 21.6 12.2817 21.6 12.6V15Z" fill="#3A3A3A"/>
</svg>
