<svg width="25" height="24" viewBox="0 0 25 24" fill="none" xmlns="http://www.w3.org/2000/svg">
<path d="M22.4165 12.015C22.416 11.8303 22.3643 11.6494 22.2672 11.4923C22.1701 11.3352 22.0315 11.2081 21.8665 11.125L15.7465 8.06499V4.06499C15.7465 3.24812 15.422 2.46471 14.8444 1.8871C14.2668 1.30948 13.4834 0.984985 12.6665 0.984985C11.8497 0.984985 11.0663 1.30948 10.4886 1.8871C9.91104 2.46471 9.58654 3.24812 9.58654 4.06499V8.06499L3.46654 11.125C3.30162 11.2081 3.16294 11.3352 3.06586 11.4923C2.96878 11.6494 2.9171 11.8303 2.91654 12.015V15.345C2.91518 15.5079 2.95365 15.6687 3.02859 15.8133C3.10353 15.958 3.21268 16.0821 3.34654 16.175C3.47964 16.2662 3.63283 16.3238 3.79303 16.343C3.95323 16.3621 4.11569 16.3422 4.26654 16.285L9.58654 14.285V18.015L7.76654 18.615C7.56792 18.6821 7.3954 18.8099 7.27338 18.9804C7.15136 19.1508 7.086 19.3553 7.08654 19.565V22.015C7.08709 22.1473 7.11389 22.2782 7.16538 22.4001C7.21688 22.5219 7.29205 22.6324 7.38654 22.725C7.5728 22.9097 7.8242 23.0139 8.08654 23.015H17.2565C17.5218 23.015 17.7761 22.9096 17.9636 22.7221C18.1512 22.5346 18.2565 22.2802 18.2565 22.015V19.515C18.2571 19.3053 18.1917 19.1008 18.0697 18.9304C17.9477 18.7599 17.7752 18.6321 17.5765 18.565L15.7465 18.015V14.295L21.0665 16.295C21.2174 16.3522 21.3798 16.3721 21.54 16.353C21.7002 16.3338 21.8534 16.2762 21.9865 16.185C22.1204 16.0921 22.2295 15.968 22.3045 15.8233C22.3794 15.6787 22.4179 15.5179 22.4165 15.355V12.015ZM15.1065 11.915C14.9543 11.856 14.79 11.8352 14.6279 11.8544C14.4658 11.8736 14.3108 11.9321 14.1765 12.025C14.0441 12.1169 13.9358 12.2394 13.8609 12.3822C13.786 12.525 13.7468 12.6838 13.7465 12.845V18.685C13.7467 18.8959 13.8135 19.1013 13.9374 19.2719C14.0614 19.4425 14.2361 19.5696 14.4365 19.635L16.2465 20.235V21.015H9.07654V20.235L10.8865 19.635C11.087 19.5696 11.2617 19.4425 11.3856 19.2719C11.5096 19.1013 11.5764 18.8959 11.5765 18.685V12.845C11.5763 12.6838 11.537 12.525 11.4622 12.3822C11.3873 12.2394 11.279 12.1169 11.1465 12.025C11.0123 11.9321 10.8573 11.8736 10.6952 11.8544C10.5331 11.8352 10.3688 11.856 10.2165 11.915L4.90654 13.915V12.635L11.0165 9.57499C11.1833 9.49327 11.3241 9.36673 11.423 9.20953C11.5219 9.05234 11.575 8.8707 11.5765 8.68499V4.09499C11.5765 3.80855 11.6903 3.53385 11.8929 3.33131C12.0954 3.12877 12.3701 3.01499 12.6565 3.01499C12.943 3.01499 13.2177 3.12877 13.4202 3.33131C13.6228 3.53385 13.7365 3.80855 13.7365 4.09499V8.68499C13.738 8.8707 13.7912 9.05234 13.8901 9.20953C13.989 9.36673 14.1298 9.49327 14.2965 9.57499L20.4065 12.635V13.905L15.1065 11.915Z" fill="#3A3A3A"/>
</svg>
