<svg width="30" height="30" viewBox="0 0 30 30" fill="none" xmlns="http://www.w3.org/2000/svg">
<path fill-rule="evenodd" clip-rule="evenodd" d="M3 5.33333C3 3.49238 4.49238 2 6.33333 2H24.6667C26.5076 2 28 3.49238 28 5.33333V23.6667C28 25.5076 26.5076 27 24.6667 27H6.33333C4.49238 27 3 25.5076 3 23.6667V5.33333ZM18.1066 20.197H16.2016C15.989 20.197 15.8146 20.1459 15.6784 20.0436C15.5475 19.9357 15.4494 19.7994 15.384 19.6346L14.5828 17.2744H9.85713L9.0559 19.6346C9.00139 19.7766 8.90601 19.9073 8.76974 20.0266C8.63348 20.1402 8.46178 20.197 8.25466 20.197H6.33333L10.9691 7.83333H13.479L18.1066 20.197ZM12.7023 11.7188L13.9859 15.502H10.4621L11.7376 11.7359C11.8139 11.537 11.8929 11.3041 11.9747 11.0372C12.0619 10.7645 12.1437 10.4691 12.22 10.151C12.2963 10.4634 12.3753 10.7531 12.4571 11.0201C12.5443 11.2871 12.626 11.52 12.7023 11.7188ZM20.3492 11.591C19.7496 11.8182 19.2019 12.1647 18.7059 12.6305L19.1065 13.3804C19.1773 13.494 19.2645 13.5934 19.3681 13.6786C19.4771 13.7581 19.6106 13.7979 19.7687 13.7979C19.9486 13.7979 20.1066 13.761 20.2429 13.6871C20.3792 13.6076 20.5236 13.5252 20.6762 13.44C20.8343 13.3491 21.0169 13.2668 21.224 13.1929C21.4311 13.1134 21.69 13.0736 22.0007 13.0736C22.4204 13.0736 22.742 13.2043 22.9655 13.4656C23.189 13.7212 23.3007 14.1245 23.3007 14.6755V15.1271C22.3359 15.1499 21.532 15.2493 20.8888 15.4254C20.2511 15.5958 19.7387 15.8145 19.3517 16.0815C18.9702 16.3428 18.7004 16.6353 18.5423 16.9591C18.3843 17.2829 18.3052 17.6067 18.3052 17.9305C18.3052 18.3224 18.3652 18.6689 18.4851 18.97C18.605 19.2711 18.774 19.5239 18.992 19.7284C19.2155 19.9272 19.4798 20.0777 19.7851 20.18C20.0903 20.2822 20.4282 20.3333 20.7989 20.3333C21.0987 20.3333 21.3685 20.3078 21.6083 20.2566C21.8536 20.2055 22.0825 20.1317 22.2951 20.0351C22.5076 19.9329 22.712 19.8079 22.9082 19.6602C23.1099 19.5125 23.317 19.3421 23.5296 19.1489L23.7095 19.7113C23.7803 19.9101 23.8703 20.0408 23.9793 20.1033C24.0937 20.1658 24.2573 20.197 24.4698 20.197H25.5V14.6755C25.5 14.1756 25.4264 13.7155 25.2792 13.2952C25.1321 12.8748 24.9195 12.5141 24.6415 12.213C24.369 11.9063 24.0338 11.6677 23.6359 11.4973C23.2435 11.3269 22.7965 11.2416 22.2951 11.2416C21.5974 11.2416 20.9488 11.3581 20.3492 11.591ZM23.3007 16.5245C22.7502 16.5529 22.2923 16.6041 21.9271 16.6779C21.562 16.7461 21.2703 16.837 21.0523 16.9506C20.8398 17.0642 20.6871 17.1948 20.5945 17.3425C20.5073 17.4845 20.4637 17.6408 20.4637 17.8112C20.4637 18.152 20.5536 18.3934 20.7335 18.5354C20.9188 18.6775 21.175 18.7485 21.502 18.7485C21.8781 18.7485 22.2024 18.6803 22.4749 18.544C22.7529 18.402 23.0282 18.1833 23.3007 17.8879V16.5245Z" fill="#FAFAFA"/>
</svg>
