<svg width="24" height="24" viewBox="0 0 24 24" fill="none" xmlns="http://www.w3.org/2000/svg">
<path d="M21.725 20.3126L18.015 16.6326C19.4551 14.837 20.1525 12.5579 19.9639 10.2639C19.7752 7.96991 18.7147 5.83539 17.0006 4.29925C15.2864 2.76312 13.0488 1.94212 10.748 2.00508C8.44708 2.06804 6.25776 3.01017 4.63018 4.63775C3.0026 6.26533 2.06047 8.45465 1.99751 10.7555C1.93455 13.0564 2.75555 15.294 4.29169 17.0081C5.82782 18.7223 7.96234 19.7827 10.2563 19.9714C12.5503 20.1601 14.8295 19.4627 16.625 18.0226L20.305 21.7026C20.398 21.7963 20.5086 21.8707 20.6305 21.9215C20.7523 21.9723 20.883 21.9984 21.015 21.9984C21.1471 21.9984 21.2778 21.9723 21.3996 21.9215C21.5215 21.8707 21.6321 21.7963 21.725 21.7026C21.9053 21.5161 22.006 21.2669 22.006 21.0076C22.006 20.7483 21.9053 20.4991 21.725 20.3126ZM11.015 18.0226C9.63057 18.0226 8.27719 17.6121 7.12605 16.8429C5.97491 16.0737 5.0777 14.9805 4.54788 13.7014C4.01807 12.4223 3.87945 11.0148 4.14954 9.65698C4.41964 8.29911 5.08633 7.05183 6.06529 6.07286C7.04426 5.09389 8.29154 4.42721 9.64941 4.15711C11.0073 3.88702 12.4147 4.02564 13.6938 4.55545C14.9729 5.08527 16.0662 5.98247 16.8353 7.13362C17.6045 8.28476 18.015 9.63814 18.015 11.0226C18.015 12.8791 17.2775 14.6596 15.9648 15.9724C14.652 17.2851 12.8716 18.0226 11.015 18.0226Z" fill="#3A3A3A"/>
</svg>
