<svg class="home-icon" width="18" height="21" viewBox="0 0 18 21" fill="none" xmlns="http://www.w3.org/2000/svg">
<path d="M17.0001 6.51197L11.0001 1.25197C10.4501 0.760014 9.73803 0.488037 9.00009 0.488037C8.26216 0.488037 7.55012 0.760014 7.00009 1.25197L1.00009 6.51197C0.682463 6.79604 0.428995 7.14453 0.256567 7.53421C0.0841385 7.9239 -0.00329256 8.34585 9.47941e-05 8.77197V17.512C9.47941e-05 18.3076 0.316165 19.0707 0.878775 19.6333C1.44138 20.1959 2.20445 20.512 3.00009 20.512H15.0001C15.7957 20.512 16.5588 20.1959 17.1214 19.6333C17.684 19.0707 18.0001 18.3076 18.0001 17.512V8.76197C18.0021 8.33753 17.9139 7.91751 17.7416 7.52965C17.5692 7.14179 17.3165 6.79493 17.0001 6.51197ZM11.0001 18.512H7.00009V13.512C7.00009 13.2468 7.10545 12.9924 7.29299 12.8049C7.48052 12.6173 7.73488 12.512 8.00009 12.512H10.0001C10.2653 12.512 10.5197 12.6173 10.7072 12.8049C10.8947 12.9924 11.0001 13.2468 11.0001 13.512V18.512ZM16.0001 17.512C16.0001 17.7772 15.8947 18.0315 15.7072 18.2191C15.5197 18.4066 15.2653 18.512 15.0001 18.512H13.0001V13.512C13.0001 12.7163 12.684 11.9533 12.1214 11.3906C11.5588 10.828 10.7957 10.512 10.0001 10.512H8.00009C7.20444 10.512 6.44138 10.828 5.87877 11.3906C5.31616 11.9533 5.00009 12.7163 5.00009 13.512V18.512H3.00009C2.73488 18.512 2.48052 18.4066 2.29299 18.2191C2.10545 18.0315 2.00009 17.7772 2.00009 17.512V8.76197C2.00027 8.61998 2.03069 8.47967 2.08931 8.35035C2.14794 8.22103 2.23343 8.10568 2.3401 8.01197L8.34009 2.76197C8.52258 2.60165 8.75719 2.51323 9.00009 2.51323C9.243 2.51323 9.47761 2.60165 9.66009 2.76197L15.6601 8.01197C15.7668 8.10568 15.8523 8.22103 15.9109 8.35035C15.9695 8.47967 15.9999 8.61998 16.0001 8.76197V17.512Z" fill="#3A3A3A"/>
</svg>
