<svg width="24" height="24" viewBox="0 0 24 24" fill="none" xmlns="http://www.w3.org/2000/svg">
<path d="M20.0001 8.01197L14.0001 2.75197C13.4501 2.26001 12.738 1.98804 12.0001 1.98804C11.2622 1.98804 10.5501 2.26001 10.0001 2.75197L4.00009 8.01197C3.68246 8.29604 3.42899 8.64453 3.25657 9.03421C3.08414 9.4239 2.99671 9.84585 3.00009 10.272V19.012C3.00009 19.8076 3.31617 20.5707 3.87877 21.1333C4.44138 21.6959 5.20445 22.012 6.00009 22.012H18.0001C18.7957 22.012 19.5588 21.6959 20.1214 21.1333C20.684 20.5707 21.0001 19.8076 21.0001 19.012V10.262C21.0021 9.83753 20.9139 9.41751 20.7416 9.02965C20.5692 8.64179 20.3165 8.29493 20.0001 8.01197V8.01197ZM14.0001 20.012H10.0001V15.012C10.0001 14.7468 10.1055 14.4924 10.293 14.3049C10.4805 14.1173 10.7349 14.012 11.0001 14.012H13.0001C13.2653 14.012 13.5197 14.1173 13.7072 14.3049C13.8947 14.4924 14.0001 14.7468 14.0001 15.012V20.012ZM19.0001 19.012C19.0001 19.2772 18.8947 19.5315 18.7072 19.7191C18.5197 19.9066 18.2653 20.012 18.0001 20.012H16.0001V15.012C16.0001 14.2163 15.684 13.4533 15.1214 12.8906C14.5588 12.328 13.7957 12.012 13.0001 12.012H11.0001C10.2044 12.012 9.44138 12.328 8.87877 12.8906C8.31617 13.4533 8.00009 14.2163 8.00009 15.012V20.012H6.00009C5.73488 20.012 5.48052 19.9066 5.29299 19.7191C5.10545 19.5315 5.00009 19.2772 5.00009 19.012V10.262C5.00027 10.12 5.03069 9.97967 5.08931 9.85035C5.14794 9.72103 5.23343 9.60568 5.3401 9.51197L11.3401 4.26197C11.5226 4.10165 11.7572 4.01323 12.0001 4.01323C12.243 4.01323 12.4776 4.10165 12.6601 4.26197L18.6601 9.51197C18.7668 9.60568 18.8523 9.72103 18.9109 9.85035C18.9695 9.97967 18.9999 10.12 19.0001 10.262V19.012Z" fill="#2D303A"/>
</svg>
