<svg width="25" height="24" viewBox="0 0 25 24" fill="none" xmlns="http://www.w3.org/2000/svg">
<path d="M14.3335 8H15.3335C15.5987 8 15.8531 7.89464 16.0406 7.70711C16.2281 7.51957 16.3335 7.26522 16.3335 7C16.3335 6.73478 16.2281 6.48043 16.0406 6.29289C15.8531 6.10536 15.5987 6 15.3335 6H14.3335C14.0683 6 13.8139 6.10536 13.6264 6.29289C13.4389 6.48043 13.3335 6.73478 13.3335 7C13.3335 7.26522 13.4389 7.51957 13.6264 7.70711C13.8139 7.89464 14.0683 8 14.3335 8ZM14.3335 12H15.3335C15.5987 12 15.8531 11.8946 16.0406 11.7071C16.2281 11.5196 16.3335 11.2652 16.3335 11C16.3335 10.7348 16.2281 10.4804 16.0406 10.2929C15.8531 10.1054 15.5987 10 15.3335 10H14.3335C14.0683 10 13.8139 10.1054 13.6264 10.2929C13.4389 10.4804 13.3335 10.7348 13.3335 11C13.3335 11.2652 13.4389 11.5196 13.6264 11.7071C13.8139 11.8946 14.0683 12 14.3335 12ZM9.3335 8H10.3335C10.5987 8 10.8531 7.89464 11.0406 7.70711C11.2281 7.51957 11.3335 7.26522 11.3335 7C11.3335 6.73478 11.2281 6.48043 11.0406 6.29289C10.8531 6.10536 10.5987 6 10.3335 6H9.3335C9.06828 6 8.81393 6.10536 8.62639 6.29289C8.43885 6.48043 8.3335 6.73478 8.3335 7C8.3335 7.26522 8.43885 7.51957 8.62639 7.70711C8.81393 7.89464 9.06828 8 9.3335 8ZM9.3335 12H10.3335C10.5987 12 10.8531 11.8946 11.0406 11.7071C11.2281 11.5196 11.3335 11.2652 11.3335 11C11.3335 10.7348 11.2281 10.4804 11.0406 10.2929C10.8531 10.1054 10.5987 10 10.3335 10H9.3335C9.06828 10 8.81393 10.1054 8.62639 10.2929C8.43885 10.4804 8.3335 10.7348 8.3335 11C8.3335 11.2652 8.43885 11.5196 8.62639 11.7071C8.81393 11.8946 9.06828 12 9.3335 12ZM21.3335 20H20.3335V3C20.3335 2.73478 20.2281 2.48043 20.0406 2.29289C19.8531 2.10536 19.5987 2 19.3335 2H5.3335C5.06828 2 4.81393 2.10536 4.62639 2.29289C4.43885 2.48043 4.3335 2.73478 4.3335 3V20H3.3335C3.06828 20 2.81393 20.1054 2.62639 20.2929C2.43885 20.4804 2.3335 20.7348 2.3335 21C2.3335 21.2652 2.43885 21.5196 2.62639 21.7071C2.81393 21.8946 3.06828 22 3.3335 22H21.3335C21.5987 22 21.8531 21.8946 22.0406 21.7071C22.2281 21.5196 22.3335 21.2652 22.3335 21C22.3335 20.7348 22.2281 20.4804 22.0406 20.2929C21.8531 20.1054 21.5987 20 21.3335 20ZM13.3335 20H11.3335V16H13.3335V20ZM18.3335 20H15.3335V15C15.3335 14.7348 15.2281 14.4804 15.0406 14.2929C14.8531 14.1054 14.5987 14 14.3335 14H10.3335C10.0683 14 9.81393 14.1054 9.62639 14.2929C9.43885 14.4804 9.3335 14.7348 9.3335 15V20H6.3335V4H18.3335V20Z" fill="#3A3A3A"/>
</svg>
